<svg width="48" height="48" viewBox="0 0 48 48" fill="none" xmlns="http://www.w3.org/2000/svg">
<path fill-rule="evenodd" clip-rule="evenodd" d="M28.2563 12.3422H40.6198C41.0357 12.3422 41.3727 12.6794 41.3727 13.0952V15.3436C41.3727 15.6551 41.1809 15.9344 40.8903 16.0463C40.8903 16.0463 38.5011 16.9659 38.5011 16.9658C38.1612 18.2409 37.6517 19.4636 36.9916 20.6066L38.0296 22.95C38.1556 23.2346 38.0936 23.5674 37.8735 23.7874L34.6945 26.9664C34.4745 27.1866 34.1417 27.2485 33.8572 27.1225L31.5152 26.0851C30.3747 26.748 29.1487 27.2547 27.8729 27.5941L26.9534 29.9832C26.8415 30.2739 26.5622 30.4657 26.2508 30.4657H21.7539C21.4424 30.4657 21.163 30.2739 21.0511 29.9832L20.1318 27.5943C18.8531 27.2543 17.6297 26.7448 16.4863 26.0844L14.1429 27.1225C13.8584 27.2485 13.5256 27.1866 13.3055 26.9664L10.1265 23.7874C9.90619 23.5671 9.84435 23.2338 9.97094 22.9491L11.0121 20.6075C10.3495 19.4673 9.84257 18.2417 9.50007 16.9662L7.10977 16.0463C6.81913 15.9344 6.62732 15.6551 6.62732 15.3436V13.0952C6.62732 12.6794 6.96435 12.3422 7.38026 12.3422H19.7437V10.977L17.3878 8.08943C17.2781 7.95503 17.2183 7.78684 17.2183 7.61338V5.34684C16.2597 5.03061 15.567 4.12708 15.567 3.06317C15.567 1.73621 16.6443 0.658936 17.9712 0.658936C19.2981 0.658936 20.3754 1.73621 20.3754 3.06317C20.3754 4.12708 19.6828 5.03061 18.7242 5.34684V7.34524L21.08 10.2329C21.1897 10.3672 21.2496 10.5354 21.2496 10.7088V12.3422H23.2471V5.34684C22.2885 5.03061 21.5958 4.12708 21.5958 3.06317C21.5958 1.73621 22.6732 0.658936 24 0.658936C25.3269 0.658936 26.4043 1.73621 26.4043 3.06317C26.4043 4.12708 25.7116 5.03061 24.753 5.34684V12.3422H26.7504V10.7088C26.7504 10.5354 26.8104 10.3672 26.92 10.2329L29.2759 7.34524V5.34684C28.3173 5.03061 27.6247 4.12708 27.6247 3.06317C27.6247 1.73621 28.702 0.658936 30.0288 0.658936C31.3558 0.658936 32.4331 1.73621 32.4331 3.06317C32.4331 4.12708 31.7404 5.03061 30.7818 5.34684V7.61338C30.7818 7.78684 30.7219 7.95503 30.6123 8.08943L28.2563 10.977V12.3422ZM19.7437 13.8481H16.9492C17.3258 17.4111 20.3372 20.188 24 20.188C27.663 20.188 30.6782 17.4112 31.0554 13.8481H28.2563V17.0181C28.2563 17.4336 27.919 17.771 27.5034 17.771C27.0878 17.771 26.7504 17.4336 26.7504 17.0181V13.8481H24.753V17.0181C24.753 17.4336 24.4156 17.771 24 17.771C23.5845 17.771 23.2471 17.4336 23.2471 17.0181V13.8481H21.2496V17.0181C21.2496 17.4336 20.9122 17.771 20.4967 17.771C20.0811 17.771 19.7437 17.4336 19.7437 17.0181V13.8481ZM15.4363 13.8481H8.1332V14.8267L10.4041 15.7006C10.6351 15.7896 10.8076 15.9864 10.8656 16.227C11.2001 17.6167 11.7488 18.9463 12.4993 20.16C12.6302 20.3717 12.6481 20.6345 12.5469 20.8619L11.557 23.0883L14.0052 25.5365L16.232 24.55C16.4583 24.4499 16.7194 24.4672 16.9303 24.5965C18.1484 25.3428 19.4737 25.8964 20.8678 26.2267C21.1096 26.284 21.3076 26.457 21.3969 26.689L22.2709 28.9598H25.7337L26.6077 26.689C26.6969 26.4571 26.8947 26.2843 27.1363 26.2268C28.5251 25.8968 29.854 25.3483 31.067 24.5981C31.2785 24.4674 31.5407 24.4494 31.768 24.55L33.9948 25.5365L36.4436 23.0877L35.4572 20.8609C35.3569 20.6347 35.3743 20.3737 35.5036 20.1627C36.25 18.9444 36.8036 17.619 37.134 16.2292C37.1914 15.9876 37.3643 15.7899 37.596 15.7006L39.8668 14.8267V13.8481H32.5682C32.1857 18.2442 28.4952 21.6939 24 21.6939C19.5048 21.6939 15.8184 18.2443 15.4363 13.8481ZM30.0288 2.16482C29.533 2.16482 29.1306 2.56736 29.1306 3.06317C29.1306 3.55889 29.533 3.96143 30.0288 3.96143C30.5246 3.96143 30.9272 3.55889 30.9272 3.06317C30.9272 2.56736 30.5246 2.16482 30.0288 2.16482ZM17.9712 2.16482C17.4754 2.16482 17.0729 2.56736 17.0729 3.06317C17.0729 3.55889 17.4754 3.96143 17.9712 3.96143C18.467 3.96143 18.8695 3.55889 18.8695 3.06317C18.8695 2.56736 18.467 2.16482 17.9712 2.16482ZM24 2.16482C23.5042 2.16482 23.1017 2.56736 23.1017 3.06317C23.1017 3.55889 23.5042 3.96143 24 3.96143C24.4958 3.96143 24.8984 3.55889 24.8984 3.06317C24.8984 2.56736 24.4958 2.16482 24 2.16482ZM23.2471 40.5032H7.80435C7.38854 40.5032 7.05141 40.166 7.05141 39.7502V29.5005C7.05141 29.085 7.38882 28.7476 7.80435 28.7476C8.21998 28.7476 8.5573 29.085 8.5573 29.5005V38.9973H12.45V32.8747C12.45 32.4591 12.7873 32.1217 13.2029 32.1217C13.6185 32.1217 13.9559 32.4591 13.9559 32.8747V38.9973H17.8485V29.5005C17.8485 29.085 18.1859 28.7476 18.6014 28.7476C19.0171 28.7476 19.3544 29.085 19.3544 29.5005V38.9973H23.2471V32.8747C23.2471 32.4591 23.5845 32.1217 24 32.1217C24.4156 32.1217 24.753 32.4591 24.753 32.8747V38.9973H28.6457V29.5005C28.6457 29.085 28.983 28.7476 29.3986 28.7476C29.8141 28.7476 30.1516 29.085 30.1516 29.5005V38.9973H34.0442V32.8747C34.0442 32.4591 34.3816 32.1217 34.7971 32.1217C35.2127 32.1217 35.55 32.4591 35.55 32.8747V38.9973H39.4428V29.5005C39.4428 29.085 39.7801 28.7476 40.1957 28.7476C40.6112 28.7476 40.9486 29.085 40.9486 29.5005V39.7502C40.9486 40.166 40.6115 40.5032 40.1957 40.5032H24.753V42.1041C25.8619 42.4296 26.6725 43.4554 26.6725 44.6688C26.6725 46.1438 25.4749 47.3413 24 47.3413C22.5251 47.3413 21.3276 46.1438 21.3276 44.6688C21.3276 43.4554 22.1382 42.4296 23.2471 42.1041V40.5032ZM24 43.5023C23.3562 43.5023 22.8334 44.0251 22.8334 44.6688C22.8334 45.3127 23.3562 45.8354 24 45.8354C24.6439 45.8354 25.1666 45.3127 25.1666 44.6688C25.1666 44.0251 24.6439 43.5023 24 43.5023Z" fill="#4750FE"/>
</svg>
