<svg width="193" height="60" viewBox="0 0 193 60" fill="none" xmlns="http://www.w3.org/2000/svg">
<path d="M69.8579 25.9854V9.64989H72.7461V25.9854H69.8579ZM76.4014 25.9854V9.64989H79.4976L87.3765 21.5492V9.64989H90.2647V25.9854H87.2379L79.2896 14.1554V25.9854H76.4014ZM93.911 25.9854V9.64989H105.325V12.2839H96.7992V17.1591H104.1V19.7932H96.7992V25.9854H93.911ZM114.834 26.1703C113.155 26.1703 111.723 25.816 110.537 25.1074C109.366 24.3988 108.465 23.413 107.833 22.1499C107.217 20.8868 106.909 19.4466 106.909 17.8292C106.909 16.181 107.225 14.7331 107.857 13.4854C108.488 12.2223 109.397 11.2365 110.583 10.5279C111.769 9.80392 113.202 9.44194 114.881 9.44194C116.56 9.44194 117.984 9.79622 119.155 10.5048C120.341 11.2134 121.25 12.1992 121.882 13.4623C122.513 14.71 122.829 16.1502 122.829 17.783C122.829 19.4004 122.513 20.8406 121.882 22.1037C121.265 23.3668 120.357 24.3603 119.155 25.0843C117.969 25.8083 116.529 26.1703 114.834 26.1703ZM114.881 23.49C116.051 23.49 117.006 23.2205 117.746 22.6813C118.485 22.1422 119.024 21.4413 119.363 20.5787C119.717 19.7161 119.894 18.7996 119.894 17.8292C119.894 17.0898 119.794 16.3813 119.594 15.7035C119.409 15.0257 119.109 14.4173 118.693 13.8782C118.293 13.3391 117.776 12.9155 117.145 12.6074C116.513 12.2839 115.759 12.1222 114.881 12.1222C113.725 12.1222 112.77 12.3917 112.016 12.9309C111.276 13.47 110.729 14.1708 110.375 15.0334C110.021 15.896 109.844 16.828 109.844 17.8292C109.844 18.815 110.021 19.7393 110.375 20.6019C110.729 21.4645 111.276 22.1653 112.016 22.7044C112.77 23.2282 113.725 23.49 114.881 23.49ZM132.634 26.1703C130.939 26.1703 129.514 25.8237 128.359 25.1305C127.204 24.4219 126.333 23.4438 125.748 22.1961C125.163 20.9484 124.87 19.5005 124.87 17.8523C124.87 16.2041 125.17 14.7485 125.771 13.4854C126.372 12.2223 127.25 11.2365 128.405 10.5279C129.56 9.80392 130.97 9.44194 132.634 9.44194C133.866 9.44194 134.952 9.64989 135.891 10.0658C136.831 10.4817 137.593 11.0747 138.179 11.8449C138.78 12.5997 139.165 13.5316 139.334 14.6407H136.538C136.323 13.8551 135.884 13.2389 135.221 12.7922C134.559 12.3455 133.696 12.1222 132.634 12.1222C131.478 12.1222 130.546 12.3917 129.838 12.9309C129.129 13.47 128.613 14.1631 128.29 15.0103C127.982 15.8575 127.828 16.7664 127.828 17.7368C127.828 18.738 127.989 19.6776 128.313 20.5556C128.652 21.4336 129.183 22.1422 129.907 22.6813C130.631 23.2205 131.563 23.49 132.703 23.49C133.411 23.49 134.028 23.3899 134.551 23.1897C135.09 22.9894 135.537 22.7044 135.891 22.3348C136.261 21.9497 136.515 21.503 136.654 20.9946H139.588C139.403 22.0883 138.988 23.0202 138.341 23.7904C137.709 24.5606 136.9 25.1536 135.914 25.5695C134.944 25.97 133.85 26.1703 132.634 26.1703ZM149.425 26.1703C147.746 26.1703 146.313 25.816 145.127 25.1074C143.957 24.3988 143.055 23.413 142.424 22.1499C141.808 20.8868 141.5 19.4466 141.5 17.8292C141.5 16.181 141.815 14.7331 142.447 13.4854C143.079 12.2223 143.987 11.2365 145.173 10.5279C146.36 9.80392 147.792 9.44194 149.471 9.44194C151.15 9.44194 152.575 9.79622 153.746 10.5048C154.932 11.2134 155.84 12.1992 156.472 13.4623C157.104 14.71 157.419 16.1502 157.419 17.783C157.419 19.4004 157.104 20.8406 156.472 22.1037C155.856 23.3668 154.947 24.3603 153.746 25.0843C152.559 25.8083 151.119 26.1703 149.425 26.1703ZM149.471 23.49C150.642 23.49 151.597 23.2205 152.336 22.6813C153.075 22.1422 153.615 21.4413 153.953 20.5787C154.308 19.7161 154.485 18.7996 154.485 17.8292C154.485 17.0898 154.385 16.3813 154.185 15.7035C154 15.0257 153.699 14.4173 153.283 13.8782C152.883 13.3391 152.367 12.9155 151.735 12.6074C151.104 12.2839 150.349 12.1222 149.471 12.1222C148.316 12.1222 147.361 12.3917 146.606 12.9309C145.867 13.47 145.32 14.1708 144.965 15.0334C144.611 15.896 144.434 16.828 144.434 17.8292C144.434 18.815 144.611 19.7393 144.965 20.6019C145.32 21.4645 145.867 22.1653 146.606 22.7044C147.361 23.2282 148.316 23.49 149.471 23.49ZM160.159 25.9854V9.64989H164.11L168.638 17.8985L173.121 9.64989H176.956V25.9854H174.068V13.3005L169.193 22.1268H167.968L163.047 13.3005V25.9854H160.159ZM76.882 49.1703C75.203 49.1703 73.7704 48.816 72.5844 48.1074C71.4137 47.3988 70.5126 46.413 69.881 45.1499C69.2649 43.8868 68.9568 42.4466 68.9568 40.8292C68.9568 39.181 69.2726 37.7331 69.9041 36.4854C70.5357 35.2223 71.4445 34.2365 72.6306 33.5279C73.8166 32.8039 75.2492 32.4419 76.9282 32.4419C78.6072 32.4419 80.032 32.7962 81.2027 33.5048C82.3888 34.2134 83.2976 35.1992 83.9291 36.4623C84.5607 37.71 84.8764 39.1502 84.8764 40.783C84.8764 42.4004 84.5607 43.8406 83.9291 45.1037C83.313 46.3668 82.4042 47.3603 81.2027 48.0843C80.0166 48.8083 78.5764 49.1703 76.882 49.1703ZM76.9282 46.49C78.0989 46.49 79.0539 46.2205 79.7932 45.6813C80.5326 45.1422 81.0717 44.4413 81.4106 43.5787C81.7649 42.7161 81.9421 41.7996 81.9421 40.8292C81.9421 40.0898 81.8419 39.3813 81.6417 38.7035C81.4568 38.0257 81.1565 37.4173 80.7406 36.8782C80.3401 36.3391 79.8241 35.9155 79.1925 35.6074C78.561 35.2839 77.8062 35.1222 76.9282 35.1222C75.7729 35.1222 74.8179 35.3917 74.0631 35.9309C73.3237 36.47 72.7769 37.1708 72.4226 38.0334C72.0683 38.896 71.8912 39.828 71.8912 40.8292C71.8912 41.815 72.0683 42.7393 72.4226 43.6019C72.7769 44.4645 73.3237 45.1653 74.0631 45.7044C74.8179 46.2282 75.7729 46.49 76.9282 46.49ZM91.3739 48.9854L85.3434 32.6499H88.4858L93.3379 46.5362L98.1207 32.6499H101.24L95.2556 48.9854H91.3739ZM103.252 48.9854V32.6499H114.782V35.2839H106.141V39.5815H113.65V42.1693H106.141V46.3514H114.782V48.9854H103.252ZM117.535 48.9854V32.6499H123.982C124.814 32.6499 125.599 32.7346 126.339 32.904C127.078 33.0581 127.733 33.3353 128.303 33.7358C128.872 34.1209 129.319 34.6524 129.643 35.3301C129.966 36.0079 130.128 36.8474 130.128 37.8486C130.128 38.6804 129.982 39.4121 129.689 40.0436C129.396 40.6752 128.988 41.2066 128.464 41.6379C127.956 42.0692 127.347 42.4004 126.639 42.6314L130.22 48.9854H126.986L123.774 43.0935H120.424V48.9854H117.535ZM120.424 40.5288H123.589C124.113 40.5288 124.59 40.4903 125.022 40.4133C125.468 40.3209 125.853 40.1745 126.177 39.9743C126.516 39.7741 126.77 39.5045 126.939 39.1656C127.124 38.8113 127.224 38.3646 127.24 37.8255C127.24 37.1785 127.101 36.6702 126.824 36.3005C126.562 35.9309 126.177 35.669 125.668 35.515C125.176 35.3609 124.583 35.2839 123.889 35.2839H120.424V40.5288ZM139.294 49.1703C138.2 49.1703 137.168 49.0085 136.198 48.685C135.243 48.3462 134.442 47.8147 133.795 47.0908C133.148 46.3514 132.724 45.3887 132.524 44.2026H135.459C135.643 44.8033 135.936 45.2731 136.337 45.612C136.752 45.9509 137.238 46.1897 137.792 46.3283C138.347 46.4515 138.909 46.5131 139.479 46.5131C139.987 46.5131 140.465 46.4515 140.911 46.3283C141.373 46.1897 141.751 45.9663 142.044 45.6582C142.352 45.3502 142.506 44.942 142.506 44.4336C142.506 44.0486 142.421 43.7405 142.252 43.5094C142.097 43.263 141.874 43.0627 141.581 42.9087C141.304 42.7392 140.965 42.6083 140.565 42.5159C140.18 42.3927 139.764 42.2848 139.317 42.1924C138.87 42.1 138.431 41.9999 138 41.8921C137.569 41.7842 137.161 41.6456 136.776 41.4762C136.283 41.3067 135.805 41.1142 135.343 40.8985C134.896 40.6675 134.503 40.3902 134.165 40.0667C133.841 39.7432 133.579 39.3428 133.379 38.8652C133.179 38.3877 133.079 37.8178 133.079 37.1554C133.079 36.4007 133.202 35.7537 133.448 35.2146C133.71 34.6601 134.049 34.2057 134.465 33.8514C134.896 33.4971 135.374 33.2198 135.898 33.0196C136.437 32.8193 136.991 32.673 137.561 32.5806C138.146 32.4881 138.701 32.4419 139.225 32.4419C140.241 32.4419 141.166 32.6114 141.997 32.9503C142.845 33.2891 143.538 33.8129 144.077 34.5214C144.616 35.23 144.924 36.1388 145.001 37.2479H142.205C142.144 36.7241 141.959 36.3082 141.651 36.0002C141.343 35.6767 140.958 35.4456 140.495 35.307C140.033 35.153 139.533 35.076 138.994 35.076C138.624 35.076 138.254 35.1068 137.885 35.1684C137.53 35.23 137.207 35.3378 136.914 35.4919C136.637 35.6459 136.406 35.8538 136.221 36.1157C136.052 36.3622 135.967 36.6779 135.967 37.063C135.967 37.4019 136.052 37.7023 136.221 37.9641C136.39 38.2106 136.621 38.4185 136.914 38.588C137.222 38.7574 137.584 38.9115 138 39.0501C138.539 39.2657 139.125 39.4275 139.756 39.5353C140.403 39.6431 141.012 39.7895 141.581 39.9743C142.136 40.1283 142.644 40.3209 143.106 40.5519C143.584 40.7676 143.992 41.0372 144.331 41.3606C144.67 41.6687 144.932 42.0538 145.117 42.5159C145.317 42.9626 145.417 43.5017 145.417 44.1333C145.417 45.0575 145.248 45.8431 144.909 46.49C144.585 47.1216 144.131 47.6376 143.545 48.0381C142.975 48.4386 142.321 48.7313 141.581 48.9161C140.857 49.0855 140.095 49.1703 139.294 49.1703ZM148.403 48.9854V32.6499H159.932V35.2839H151.291V39.5815H158.8V42.1693H151.291V46.3514H159.932V48.9854H148.403ZM160.953 48.9854L167.214 32.6499H170.657L176.896 48.9854H173.776L172.69 45.9586H165.158L164.049 48.9854H160.953ZM166.082 43.3477H171.743L168.924 35.5612L166.082 43.3477ZM184.422 49.1703C183.328 49.1703 182.296 49.0085 181.326 48.685C180.371 48.3462 179.57 47.8147 178.923 47.0908C178.276 46.3514 177.852 45.3887 177.652 44.2026H180.586C180.771 44.8033 181.064 45.2731 181.464 45.612C181.88 45.9509 182.365 46.1897 182.92 46.3283C183.474 46.4515 184.037 46.5131 184.607 46.5131C185.115 46.5131 185.592 46.4515 186.039 46.3283C186.501 46.1897 186.879 45.9663 187.171 45.6582C187.479 45.3502 187.633 44.942 187.633 44.4336C187.633 44.0486 187.549 43.7405 187.379 43.5094C187.225 43.263 187.002 43.0627 186.709 42.9087C186.432 42.7392 186.093 42.6083 185.693 42.5159C185.307 42.3927 184.892 42.2848 184.445 42.1924C183.998 42.1 183.559 41.9999 183.128 41.8921C182.697 41.7842 182.288 41.6456 181.903 41.4762C181.41 41.3067 180.933 41.1142 180.471 40.8985C180.024 40.6675 179.631 40.3902 179.292 40.0667C178.969 39.7432 178.707 39.3428 178.507 38.8652C178.307 38.3877 178.206 37.8178 178.206 37.1554C178.206 36.4007 178.33 35.7537 178.576 35.2146C178.838 34.6601 179.177 34.2057 179.593 33.8514C180.024 33.4971 180.502 33.2198 181.025 33.0196C181.564 32.8193 182.119 32.673 182.689 32.5806C183.274 32.4881 183.829 32.4419 184.352 32.4419C185.369 32.4419 186.293 32.6114 187.125 32.9503C187.972 33.2891 188.665 33.8129 189.205 34.5214C189.744 35.23 190.052 36.1388 190.129 37.2479H187.333C187.271 36.7241 187.087 36.3082 186.779 36.0002C186.47 35.6767 186.085 35.4456 185.623 35.307C185.161 35.153 184.661 35.076 184.121 35.076C183.752 35.076 183.382 35.1068 183.012 35.1684C182.658 35.23 182.335 35.3378 182.042 35.4919C181.765 35.6459 181.534 35.8538 181.349 36.1157C181.179 36.3622 181.095 36.6779 181.095 37.063C181.095 37.4019 181.179 37.7023 181.349 37.9641C181.518 38.2106 181.749 38.4185 182.042 38.588C182.35 38.7574 182.712 38.9115 183.128 39.0501C183.667 39.2657 184.252 39.4275 184.884 39.5353C185.531 39.6431 186.139 39.7895 186.709 39.9743C187.264 40.1283 187.772 40.3209 188.234 40.5519C188.712 40.7676 189.12 41.0372 189.459 41.3606C189.798 41.6687 190.059 42.0538 190.244 42.5159C190.445 42.9626 190.545 43.5017 190.545 44.1333C190.545 45.0575 190.375 45.8431 190.036 46.49C189.713 47.1216 189.258 47.6376 188.673 48.0381C188.103 48.4386 187.449 48.7313 186.709 48.9161C185.985 49.0855 185.223 49.1703 184.422 49.1703Z" fill="#26242D"/>
<path fill-rule="evenodd" clip-rule="evenodd" d="M20.5261 17.9769C20.5261 16.5557 21.6782 15.4036 23.0994 15.4036C24.5206 15.4036 25.6727 14.2515 25.6727 12.8303V12.1261C25.6727 10.316 27.1401 8.84863 28.9502 8.84863H38.4406C39.8962 8.84863 41.0763 10.0287 41.0763 11.4843C41.0763 12.94 42.2563 14.12 43.7119 14.12H45.3027C46.7206 14.12 47.87 15.2694 47.87 16.6873C47.87 18.1051 46.7206 19.2545 45.3027 19.2545H35.3C30.6919 19.2545 26.9563 22.9901 26.9563 27.5982V29.873C26.9563 33.2247 29.6734 35.9418 33.0251 35.9418H37.0464C38.1772 35.9418 39.0938 36.8584 39.0938 37.9892C39.0938 39.12 40.0105 40.0366 41.1412 40.0366H41.8401C42.8361 40.0366 43.6435 40.8441 43.6435 41.8401C43.6435 42.8361 44.451 43.6436 45.447 43.6436H45.7568C46.9239 43.6436 47.87 44.5897 47.87 45.7568V53.8702C47.87 54.9226 47.0168 55.7758 45.9644 55.7758H45.6945C44.7911 55.7758 44.0588 56.5081 44.0588 57.4115C44.0588 58.3148 43.3265 59.0471 42.4231 59.0471H23.7352C21.9629 59.0471 20.5261 57.6104 20.5261 55.8381C20.5261 54.0657 21.9629 52.629 23.7352 52.629H27.5982C30.7883 52.629 33.3745 50.0428 33.3745 46.8526C33.3745 43.6624 30.7883 41.0763 27.5982 41.0763H26.9503C23.4023 41.0763 20.5261 38.2001 20.5261 34.6521V17.9769ZM47.87 37.9069C47.87 38.9484 47.0257 39.7927 45.9842 39.7927C44.9427 39.7927 44.0984 38.9484 44.0984 37.9069V37.8276C44.0984 36.7861 44.9427 35.9418 45.9842 35.9418C47.0257 35.9418 47.87 36.7861 47.87 37.8276V37.9069Z" fill="#4750FE"/>
<path fill-rule="evenodd" clip-rule="evenodd" d="M0 46.2108C0 47.6287 1.14941 48.7781 2.56727 48.7781C3.98513 48.7781 5.13454 49.9275 5.13454 51.3453V51.9505C5.13454 53.7026 6.55489 55.123 8.30699 55.123H16.7239C18.1215 55.123 19.2545 53.99 19.2545 52.5924C19.2545 51.1947 20.3875 50.0618 21.7852 50.0618H27.8799C29.6268 50.0618 31.0429 48.6456 31.0429 46.8987C31.0429 45.1518 29.6268 43.7357 27.8799 43.7357H24.6603C21.1353 43.7357 18.2777 40.8781 18.2777 37.353V15.5939C18.2777 14.232 19.3817 13.1279 20.7437 13.1279C22.1056 13.1279 23.2097 12.0239 23.2097 10.6619V8.81023C23.2097 7.54963 24.2316 6.52771 25.4922 6.52771C26.7528 6.52771 27.7747 5.50579 27.7747 4.24519V1.82439C27.7747 0.816826 28.5915 3.43323e-05 29.5991 3.43323e-05L29.5923 1.90735e-05L7.14932 0C5.82742 0 4.75582 1.07943 4.75582 2.40132C4.75582 3.7146 3.69119 4.78699 2.37791 4.78699C1.06463 4.78699 0 5.85162 0 7.16491V8.23219C0 10.1349 1.54246 11.6774 3.44519 11.6774H4.06176C6.30501 11.6774 8.12351 13.4959 8.12351 15.7391V39.0212C8.12351 41.2644 6.305 43.083 4.06176 43.083H2.84756C1.27489 43.083 0 44.3579 0 45.9305V46.2108Z" fill="#4750FE"/>
</svg>
