<svg width="205" height="46" viewBox="0 0 205 46" fill="none" xmlns="http://www.w3.org/2000/svg">
<path d="M73.6494 20V7.274H75.8994V20H73.6494ZM78.7471 20V7.274H81.1591L87.2971 16.544V7.274H89.5471V20H87.1891L80.9971 10.784V20H78.7471ZM92.3877 20V7.274H101.28V9.326H94.6377V13.124H100.326V15.176H94.6377V20H92.3877ZM108.688 20.144C107.38 20.144 106.264 19.868 105.34 19.316C104.428 18.764 103.726 17.996 103.234 17.012C102.754 16.028 102.514 14.906 102.514 13.646C102.514 12.362 102.76 11.234 103.252 10.262C103.744 9.278 104.452 8.51 105.376 7.958C106.3 7.394 107.416 7.112 108.724 7.112C110.032 7.112 111.142 7.388 112.054 7.94C112.978 8.492 113.686 9.26 114.178 10.244C114.67 11.216 114.916 12.338 114.916 13.61C114.916 14.87 114.67 15.992 114.178 16.976C113.698 17.96 112.99 18.734 112.054 19.298C111.13 19.862 110.008 20.144 108.688 20.144ZM108.724 18.056C109.636 18.056 110.38 17.846 110.956 17.426C111.532 17.006 111.952 16.46 112.216 15.788C112.492 15.116 112.63 14.402 112.63 13.646C112.63 13.07 112.552 12.518 112.396 11.99C112.252 11.462 112.018 10.988 111.694 10.568C111.382 10.148 110.98 9.818 110.488 9.578C109.996 9.326 109.408 9.2 108.724 9.2C107.824 9.2 107.08 9.41 106.492 9.83C105.916 10.25 105.49 10.796 105.214 11.468C104.938 12.14 104.8 12.866 104.8 13.646C104.8 14.414 104.938 15.134 105.214 15.806C105.49 16.478 105.916 17.024 106.492 17.444C107.08 17.852 107.824 18.056 108.724 18.056ZM122.554 20.144C121.234 20.144 120.124 19.874 119.224 19.334C118.324 18.782 117.646 18.02 117.19 17.048C116.734 16.076 116.506 14.948 116.506 13.664C116.506 12.38 116.74 11.246 117.208 10.262C117.676 9.278 118.36 8.51 119.26 7.958C120.16 7.394 121.258 7.112 122.554 7.112C123.514 7.112 124.36 7.274 125.092 7.598C125.824 7.922 126.418 8.384 126.874 8.984C127.342 9.572 127.642 10.298 127.774 11.162H125.596C125.428 10.55 125.086 10.07 124.57 9.722C124.054 9.374 123.382 9.2 122.554 9.2C121.654 9.2 120.928 9.41 120.376 9.83C119.824 10.25 119.422 10.79 119.17 11.45C118.93 12.11 118.81 12.818 118.81 13.574C118.81 14.354 118.936 15.086 119.188 15.77C119.452 16.454 119.866 17.006 120.43 17.426C120.994 17.846 121.72 18.056 122.608 18.056C123.16 18.056 123.64 17.978 124.048 17.822C124.468 17.666 124.816 17.444 125.092 17.156C125.38 16.856 125.578 16.508 125.686 16.112H127.972C127.828 16.964 127.504 17.69 127 18.29C126.508 18.89 125.878 19.352 125.11 19.676C124.354 19.988 123.502 20.144 122.554 20.144ZM135.635 20.144C134.327 20.144 133.211 19.868 132.287 19.316C131.375 18.764 130.673 17.996 130.181 17.012C129.701 16.028 129.461 14.906 129.461 13.646C129.461 12.362 129.707 11.234 130.199 10.262C130.691 9.278 131.399 8.51 132.323 7.958C133.247 7.394 134.363 7.112 135.671 7.112C136.979 7.112 138.089 7.388 139.001 7.94C139.925 8.492 140.633 9.26 141.125 10.244C141.617 11.216 141.863 12.338 141.863 13.61C141.863 14.87 141.617 15.992 141.125 16.976C140.645 17.96 139.937 18.734 139.001 19.298C138.077 19.862 136.955 20.144 135.635 20.144ZM135.671 18.056C136.583 18.056 137.327 17.846 137.903 17.426C138.479 17.006 138.899 16.46 139.163 15.788C139.439 15.116 139.577 14.402 139.577 13.646C139.577 13.07 139.499 12.518 139.343 11.99C139.199 11.462 138.965 10.988 138.641 10.568C138.329 10.148 137.927 9.818 137.435 9.578C136.943 9.326 136.355 9.2 135.671 9.2C134.771 9.2 134.027 9.41 133.439 9.83C132.863 10.25 132.437 10.796 132.161 11.468C131.885 12.14 131.747 12.866 131.747 13.646C131.747 14.414 131.885 15.134 132.161 15.806C132.437 16.478 132.863 17.024 133.439 17.444C134.027 17.852 134.771 18.056 135.671 18.056ZM143.997 20V7.274H147.075L150.603 13.7L154.095 7.274H157.083V20H154.833V10.118L151.035 16.994H150.081L146.247 10.118V20H143.997ZM79.1214 38.144C77.8134 38.144 76.6974 37.868 75.7734 37.316C74.8614 36.764 74.1594 35.996 73.6674 35.012C73.1874 34.028 72.9474 32.906 72.9474 31.646C72.9474 30.362 73.1934 29.234 73.6854 28.262C74.1774 27.278 74.8854 26.51 75.8094 25.958C76.7334 25.394 77.8494 25.112 79.1574 25.112C80.4654 25.112 81.5754 25.388 82.4874 25.94C83.4114 26.492 84.1194 27.26 84.6114 28.244C85.1034 29.216 85.3494 30.338 85.3494 31.61C85.3494 32.87 85.1034 33.992 84.6114 34.976C84.1314 35.96 83.4234 36.734 82.4874 37.298C81.5634 37.862 80.4414 38.144 79.1214 38.144ZM79.1574 36.056C80.0694 36.056 80.8134 35.846 81.3894 35.426C81.9654 35.006 82.3854 34.46 82.6494 33.788C82.9254 33.116 83.0634 32.402 83.0634 31.646C83.0634 31.07 82.9854 30.518 82.8294 29.99C82.6854 29.462 82.4514 28.988 82.1274 28.568C81.8154 28.148 81.4134 27.818 80.9214 27.578C80.4294 27.326 79.8414 27.2 79.1574 27.2C78.2574 27.2 77.5134 27.41 76.9254 27.83C76.3494 28.25 75.9234 28.796 75.6474 29.468C75.3714 30.14 75.2334 30.866 75.2334 31.646C75.2334 32.414 75.3714 33.134 75.6474 33.806C75.9234 34.478 76.3494 35.024 76.9254 35.444C77.5134 35.852 78.2574 36.056 79.1574 36.056ZM90.4112 38L85.7132 25.274H88.1612L91.9412 36.092L95.6672 25.274H98.0972L93.4352 38H90.4112ZM99.665 38V25.274H108.647V27.326H101.915V30.674H107.765V32.69H101.915V35.948H108.647V38H99.665ZM110.792 38V25.274H115.814C116.462 25.274 117.074 25.34 117.65 25.472C118.226 25.592 118.736 25.808 119.18 26.12C119.624 26.42 119.972 26.834 120.224 27.362C120.476 27.89 120.602 28.544 120.602 29.324C120.602 29.972 120.488 30.542 120.26 31.034C120.032 31.526 119.714 31.94 119.306 32.276C118.91 32.612 118.436 32.87 117.884 33.05L120.674 38H118.154L115.652 33.41H113.042V38H110.792ZM113.042 31.412H115.508C115.916 31.412 116.288 31.382 116.624 31.322C116.972 31.25 117.272 31.136 117.524 30.98C117.788 30.824 117.986 30.614 118.118 30.35C118.262 30.074 118.34 29.726 118.352 29.306C118.352 28.802 118.244 28.406 118.028 28.118C117.824 27.83 117.524 27.626 117.128 27.506C116.744 27.386 116.282 27.326 115.742 27.326H113.042V31.412ZM127.743 38.144C126.891 38.144 126.087 38.018 125.331 37.766C124.587 37.502 123.963 37.088 123.459 36.524C122.955 35.948 122.625 35.198 122.469 34.274H124.755C124.899 34.742 125.127 35.108 125.439 35.372C125.763 35.636 126.141 35.822 126.573 35.93C127.005 36.026 127.443 36.074 127.887 36.074C128.283 36.074 128.655 36.026 129.003 35.93C129.363 35.822 129.657 35.648 129.885 35.408C130.125 35.168 130.245 34.85 130.245 34.454C130.245 34.154 130.179 33.914 130.047 33.734C129.927 33.542 129.753 33.386 129.525 33.266C129.309 33.134 129.045 33.032 128.733 32.96C128.433 32.864 128.109 32.78 127.761 32.708C127.413 32.636 127.071 32.558 126.735 32.474C126.399 32.39 126.081 32.282 125.781 32.15C125.397 32.018 125.025 31.868 124.665 31.7C124.317 31.52 124.011 31.304 123.747 31.052C123.495 30.8 123.291 30.488 123.135 30.116C122.979 29.744 122.901 29.3 122.901 28.784C122.901 28.196 122.997 27.692 123.189 27.272C123.393 26.84 123.657 26.486 123.981 26.21C124.317 25.934 124.689 25.718 125.097 25.562C125.517 25.406 125.949 25.292 126.393 25.22C126.849 25.148 127.281 25.112 127.689 25.112C128.481 25.112 129.201 25.244 129.849 25.508C130.509 25.772 131.049 26.18 131.469 26.732C131.889 27.284 132.129 27.992 132.189 28.856H130.011C129.963 28.448 129.819 28.124 129.579 27.884C129.339 27.632 129.039 27.452 128.679 27.344C128.319 27.224 127.929 27.164 127.509 27.164C127.221 27.164 126.933 27.188 126.645 27.236C126.369 27.284 126.117 27.368 125.889 27.488C125.673 27.608 125.493 27.77 125.349 27.974C125.217 28.166 125.151 28.412 125.151 28.712C125.151 28.976 125.217 29.21 125.349 29.414C125.481 29.606 125.661 29.768 125.889 29.9C126.129 30.032 126.411 30.152 126.735 30.26C127.155 30.428 127.611 30.554 128.103 30.638C128.607 30.722 129.081 30.836 129.525 30.98C129.957 31.1 130.353 31.25 130.713 31.43C131.085 31.598 131.403 31.808 131.667 32.06C131.931 32.3 132.135 32.6 132.279 32.96C132.435 33.308 132.513 33.728 132.513 34.22C132.513 34.94 132.381 35.552 132.117 36.056C131.865 36.548 131.511 36.95 131.055 37.262C130.611 37.574 130.101 37.802 129.525 37.946C128.961 38.078 128.367 38.144 127.743 38.144ZM134.839 38V25.274H143.821V27.326H137.089V30.674H142.939V32.69H137.089V35.948H143.821V38H134.839ZM144.616 38L149.494 25.274H152.176L157.036 38H154.606L153.76 35.642H147.892L147.028 38H144.616ZM148.612 33.608H153.022L150.826 27.542L148.612 33.608ZM162.899 38.144C162.047 38.144 161.243 38.018 160.487 37.766C159.743 37.502 159.119 37.088 158.615 36.524C158.111 35.948 157.781 35.198 157.625 34.274H159.911C160.055 34.742 160.283 35.108 160.595 35.372C160.919 35.636 161.297 35.822 161.729 35.93C162.161 36.026 162.599 36.074 163.043 36.074C163.439 36.074 163.811 36.026 164.159 35.93C164.519 35.822 164.813 35.648 165.041 35.408C165.281 35.168 165.401 34.85 165.401 34.454C165.401 34.154 165.335 33.914 165.203 33.734C165.083 33.542 164.909 33.386 164.681 33.266C164.465 33.134 164.201 33.032 163.889 32.96C163.589 32.864 163.265 32.78 162.917 32.708C162.569 32.636 162.227 32.558 161.891 32.474C161.555 32.39 161.237 32.282 160.937 32.15C160.553 32.018 160.181 31.868 159.821 31.7C159.473 31.52 159.167 31.304 158.903 31.052C158.651 30.8 158.447 30.488 158.291 30.116C158.135 29.744 158.057 29.3 158.057 28.784C158.057 28.196 158.153 27.692 158.345 27.272C158.549 26.84 158.813 26.486 159.137 26.21C159.473 25.934 159.845 25.718 160.253 25.562C160.673 25.406 161.105 25.292 161.549 25.22C162.005 25.148 162.437 25.112 162.845 25.112C163.637 25.112 164.357 25.244 165.005 25.508C165.665 25.772 166.205 26.18 166.625 26.732C167.045 27.284 167.285 27.992 167.345 28.856H165.167C165.119 28.448 164.975 28.124 164.735 27.884C164.495 27.632 164.195 27.452 163.835 27.344C163.475 27.224 163.085 27.164 162.665 27.164C162.377 27.164 162.089 27.188 161.801 27.236C161.525 27.284 161.273 27.368 161.045 27.488C160.829 27.608 160.649 27.77 160.505 27.974C160.373 28.166 160.307 28.412 160.307 28.712C160.307 28.976 160.373 29.21 160.505 29.414C160.637 29.606 160.817 29.768 161.045 29.9C161.285 30.032 161.567 30.152 161.891 30.26C162.311 30.428 162.767 30.554 163.259 30.638C163.763 30.722 164.237 30.836 164.681 30.98C165.113 31.1 165.509 31.25 165.869 31.43C166.241 31.598 166.559 31.808 166.823 32.06C167.087 32.3 167.291 32.6 167.435 32.96C167.591 33.308 167.669 33.728 167.669 34.22C167.669 34.94 167.537 35.552 167.273 36.056C167.021 36.548 166.667 36.95 166.211 37.262C165.767 37.574 165.257 37.802 164.681 37.946C164.117 38.078 163.523 38.144 162.899 38.144Z" fill="#26242D"/>
<path fill-rule="evenodd" clip-rule="evenodd" d="M21.7916 14.7321C21.7916 13.2233 23.0148 12.0001 24.5236 12.0001H24.7023C26.1124 12.0001 27.2556 10.857 27.2556 9.44684V9.44684C27.2556 8.0367 28.3987 6.89355 29.8088 6.89355H41.5557C42.6897 6.89355 43.6089 7.81284 43.6089 8.94684V8.94684C43.6089 10.0808 44.5282 11.0001 45.6622 11.0001H48.8215C49.9261 11.0001 50.8215 11.8956 50.8215 13.0001V13.0001C50.8215 14.1047 49.9261 15.0001 48.8215 15.0001H35.1183C31.5285 15.0001 28.6183 17.9389 28.6183 21.5288V21.5288C28.6183 25.0871 31.5029 28.0001 35.0613 28.0001H39.9092C40.7901 28.0001 41.5042 28.7142 41.5042 29.5952V29.5952C41.5042 30.4761 42.2183 31.1902 43.0992 31.1902H44.9296C45.7055 31.1902 46.3345 31.8192 46.3345 32.5952V32.5952C46.3345 33.3711 46.9635 34.0001 47.7395 34.0001H48.578C49.8171 34.0001 50.8215 35.0046 50.8215 36.2436V41.4285C50.8215 42.5458 49.9157 43.4516 48.7984 43.4516H48.0495C47.3458 43.4516 46.7753 44.0221 46.7753 44.7259V44.7259C46.7753 45.4296 46.2048 46.0001 45.501 46.0001H24.2916C22.9109 46.0001 21.7916 44.8808 21.7916 43.5001V43.5001C21.7916 42.1194 22.9109 41.0001 24.2916 41.0001H30.9323C33.4175 41.0001 35.4323 38.9854 35.4323 36.5001V36.5001C35.4323 34.0148 33.4175 32.0001 30.9323 32.0001H28.6119C24.8452 32.0001 21.7916 28.9466 21.7916 25.1798V14.7321ZM50.8215 29.5001C50.8215 30.3285 50.15 31.0001 49.3215 31.0001H48.3174C47.4889 31.0001 46.8174 30.3285 46.8174 29.5001V29.5001C46.8174 28.6717 47.4889 28.0001 48.3174 28.0001H49.3215C50.15 28.0001 50.8215 28.6717 50.8215 29.5001V29.5001Z" fill="#4750FE"/>
<path fill-rule="evenodd" clip-rule="evenodd" d="M0 35.7816C0 37.0067 0.993201 37.9999 2.21838 37.9999H2.97966C4.34461 37.9999 5.45113 39.1065 5.45113 40.4714V40.4714C5.45113 41.8364 6.55764 42.9429 7.92259 42.9429H18.4703C19.5591 42.9429 20.4417 42.0602 20.4417 40.9714V40.9714C20.4417 39.8826 21.3244 38.9999 22.4132 38.9999H30.4929C31.8538 38.9999 32.957 37.8967 32.957 36.5358V36.5358C32.957 35.1749 31.8538 34.0717 30.4929 34.0717H26.1808C22.4384 34.0717 19.4046 31.0379 19.4046 27.2955V12.8452C19.4046 11.3993 20.6005 10.2271 22.0465 10.2271V10.2271C23.4663 10.2271 24.6407 9.07607 24.6407 7.6562V7.50854C24.6407 6.17021 25.7257 5.08529 27.064 5.08529V5.08529C28.4023 5.08529 29.4872 4.00036 29.4872 2.66204V2.54263C29.4872 1.13836 28.3488 -2.67029e-05 26.9446 -2.67029e-05H6.91372C5.88393 -2.67029e-05 5.04912 0.834787 5.04912 1.86458V1.86458C5.04912 2.89438 4.2143 3.72919 3.18451 3.72919H2.52456C1.13028 3.72919 0 4.85948 0 6.25375V6.41312C0 7.8954 1.20163 9.09704 2.68392 9.09704H4.31228C6.69388 9.09704 8.62456 11.0277 8.62456 13.4093V29.2509C8.62456 31.6325 6.69388 33.5632 4.31228 33.5632H2.21838C0.993201 33.5632 0 34.5564 0 35.7816V35.7816Z" fill="#4750FE"/>
</svg>
