<svg width="26" height="30" viewBox="0 0 26 30" fill="none" xmlns="http://www.w3.org/2000/svg">
<path d="M25.0605 9.52894V27.0465C25.0605 28.6777 23.7382 30 22.107 30H3.89308C2.26189 30 0.939575 28.6777 0.939575 27.0465V2.9535C0.939513 1.32231 2.26183 0 3.89308 0H16.0923L25.0605 9.52894Z" fill="#E5252A"/>
<path d="M25.0605 9.52894H18.0613C16.9738 9.52894 16.0923 8.64738 16.0923 7.55994V0L25.0605 9.52894Z" fill="#ED676A"/>
<path d="M7.23353 21.0678V23.0637H5.81641V17.1836H8.16228C8.61222 17.1836 9.01028 17.2663 9.35641 17.4317C9.70253 17.597 9.96978 17.8335 10.1602 18.1393C10.3486 18.445 10.4447 18.7912 10.4447 19.1795C10.4447 19.7525 10.239 20.2102 9.82747 20.5544C9.41791 20.8967 8.85447 21.0678 8.13728 21.0678H7.23353ZM7.23353 19.9737H8.16228C8.43728 19.9737 8.64684 19.9063 8.79103 19.7679C8.93522 19.6314 9.00641 19.4372 9.00641 19.1872C9.00641 18.9122 8.93141 18.693 8.78334 18.5277C8.63528 18.3642 8.43341 18.2815 8.17766 18.2777H7.23353V19.9737Z" fill="white"/>
<path d="M11.1985 23.0637V17.1836H13.0925C13.6117 17.1836 14.0789 17.3009 14.4942 17.5374C14.9077 17.772 15.2326 18.1047 15.4653 18.5354C15.698 18.9642 15.8152 19.4449 15.8172 19.9775V20.2487C15.8172 20.787 15.7037 21.2697 15.4768 21.6966C15.2499 22.1235 14.9288 22.4562 14.5154 22.6984C14.1019 22.9388 13.6404 23.0599 13.1328 23.0638H11.1985V23.0637ZM12.6157 18.2777V21.9735H13.1079C13.5155 21.9735 13.827 21.8293 14.0444 21.5389C14.2635 21.2505 14.3732 20.8198 14.3732 20.2487V19.9948C14.3732 19.4257 14.2635 18.9988 14.0444 18.7103C13.827 18.4219 13.5098 18.2777 13.0925 18.2777H12.6157Z" fill="white"/>
<path d="M20.2495 20.7217H17.9631V23.0637H16.546V17.1836H20.4783V18.2777H17.9631V19.6314H20.2495V20.7217Z" fill="white"/>
</svg>
