<?xml version="1.0" encoding="utf-8"?><svg xmlns="http://www.w3.org/2000/svg" xmlns:xlink="http://www.w3.org/1999/xlink"><symbol viewBox="0 0 22 24" id="basket" xmlns="http://www.w3.org/2000/svg"><g clip-path="url(#aa)"><path d="M10.363 18.443a2.046 2.046 0 0 0-2.045 2.042 2.046 2.046 0 0 0 4.09 0 2.046 2.046 0 0 0-2.045-2.042Zm6.134 0a2.046 2.046 0 0 0-2.045 2.042 2.046 2.046 0 0 0 4.089 0 2.046 2.046 0 0 0-2.044-2.042Zm3.978-8.199L7.413 6.891a.614.614 0 0 0-.75.73L8.67 16.4h-.786L5.482 5.895a.613.613 0 0 0-.474-.464l-4.27-.882A.614.614 0 0 0 .489 5.75l3.885.802L6.797 17.15a.613.613 0 0 0 .598.477h12.07a.615.615 0 0 0 .607-.53l.858-6.175a.613.613 0 0 0-.455-.678Zm-8.14 3.91a.613.613 0 0 1-1.227 0v-2.696a.613.613 0 0 1 1.227 0v2.696Zm2.625 0a.613.613 0 0 1-1.227 0v-1.88a.613.613 0 0 1 1.227 0v1.88Zm2.625 0a.613.613 0 0 1-1.227 0v-1.226a.613.613 0 0 1 1.227 0v1.226Z"/></g><path fill-rule="evenodd" clip-rule="evenodd" d="M16.268 4.568a2.996 2.996 0 0 0-1.693-.523c-.627 0-1.21.193-1.693.523-.28-.843-.492-1.752-.492-2.383C12.39.98 13.37 0 14.575 0s2.185.98 2.185 2.185c0 .631-.212 1.54-.492 2.383Zm-4.722 2.274.024.006v-.011l-.024.005Zm4.972 1.217c-1.333-.33-2.766-.681-4.129-1.013a2.185 2.185 0 1 1 4.129 1.013Zm4.436 1.103c-.866-.217-2.155-.538-3.618-.9a2.995 2.995 0 0 0 .243-1.425c.87.18 1.762.45 2.308.765.596.344.969.928 1.067 1.56ZM9.869 6.439c-.36-.086-.706-.167-1.03-.243a2.19 2.19 0 0 1-.376-2.667 2.188 2.188 0 0 1 3.147-.7c.098.738.338 1.599.61 2.353a3.01 3.01 0 0 0-.449.774c-.628.113-1.305.278-1.902.483Zm10.124.075a3.43 3.43 0 0 1-.217.114c-.696-.295-1.587-.526-2.397-.672a3.01 3.01 0 0 0-.449-.774c.262-.727.494-1.553.599-2.273.095-.067.189-.128.278-.18a2.188 2.188 0 0 1 2.986.8 2.188 2.188 0 0 1-.8 2.985Z"/><defs><clipPath id="aa"><path transform="translate(0 3.064)" d="M0 0h20.936v20.936H0z"/></clipPath></defs></symbol><symbol viewBox="0 0 48 48" id="calendar" xmlns="http://www.w3.org/2000/svg"><path d="M41.664 9.408h1.728c1.536 0 2.88 1.248 2.88 2.88v29.664c0 1.536-1.248 2.88-2.88 2.88H4.512c-1.536 0-2.88-1.248-2.88-2.88V12.288c0-1.536 1.248-2.88 2.88-2.88H6.24m25.44 0h4.8m-14.88 0h4.8m-14.88 0h4.8M1.728 16.8h44.64"/><path d="M8.928 13.152a2.581 2.581 0 0 1-2.592-2.592V5.856a2.581 2.581 0 0 1 2.592-2.592 2.581 2.581 0 0 1 2.592 2.592v4.704a2.581 2.581 0 0 1-2.592 2.592Zm10.08 0a2.581 2.581 0 0 1-2.592-2.592V5.856a2.581 2.581 0 0 1 2.592-2.592A2.581 2.581 0 0 1 21.6 5.856v4.704a2.581 2.581 0 0 1-2.592 2.592Zm9.984 0A2.581 2.581 0 0 1 26.4 10.56V5.856a2.581 2.581 0 0 1 2.592-2.592 2.581 2.581 0 0 1 2.592 2.592v4.704c.096 1.44-1.152 2.592-2.592 2.592Zm10.08 0a2.581 2.581 0 0 1-2.592-2.592V5.856a2.581 2.581 0 0 1 2.592-2.592 2.581 2.581 0 0 1 2.592 2.592v4.704c.096 1.44-1.152 2.592-2.592 2.592ZM4.512 19.68h5.472v5.472H4.512V19.68Zm8.352 0h5.472v5.472h-5.472V19.68Zm16.704 0h5.472v5.472h-5.472V19.68Zm-16.704 8.352h5.472v5.472h-5.472v-5.472Zm8.352 0h5.472v5.472h-5.472v-5.472Zm16.704 0h5.472v5.472H37.92v-5.472ZM4.512 36.48h5.472v5.472H4.512V36.48Zm8.352 0h5.472v5.472h-5.472V36.48Zm16.704 0h5.472v5.472h-5.472V36.48Zm8.352 0h5.472v5.472H37.92V36.48ZM21.888 22.56l1.344 1.344 2.88-2.88m12.576 1.536 1.248 1.344 2.88-2.88M5.184 30.912l1.344 1.344 2.784-2.88m12.576 9.984 1.344 1.248 2.88-2.88m4.128-6.816 1.344 1.344 2.88-2.88"/></symbol><symbol viewBox="0 0 48 48" id="car" xmlns="http://www.w3.org/2000/svg"><path d="M21.333 11.556v5.333h5.334v-5.333h-5.334Zm3.556 3.555H23.11v-1.778h1.778v1.778Z"/><path d="M40.889 11.556a2.663 2.663 0 0 0-2.503 1.777h-8.164V9.778h2.83a2.663 2.663 0 0 0 2.504 1.777 2.67 2.67 0 0 0 2.666-2.666 2.67 2.67 0 0 0-2.666-2.667A2.663 2.663 0 0 0 33.052 8h-4.608V5.17a2.663 2.663 0 0 0 1.778-2.503A2.67 2.67 0 0 0 27.555 0a2.67 2.67 0 0 0-2.666 2.667c0 1.157.746 2.135 1.778 2.503V8h-5.334V5.17a2.663 2.663 0 0 0 1.778-2.503A2.67 2.67 0 0 0 20.444 0a2.67 2.67 0 0 0-2.666 2.667c0 1.157.746 2.135 1.778 2.503V8h-4.608a2.663 2.663 0 0 0-2.504-1.778A2.67 2.67 0 0 0 9.778 8.89a2.67 2.67 0 0 0 2.666 2.666 2.663 2.663 0 0 0 2.503-1.777h2.83v3.555H9.615a2.663 2.663 0 0 0-2.503-1.778 2.67 2.67 0 0 0-2.667 2.667 2.67 2.67 0 0 0 2.667 2.667 2.663 2.663 0 0 0 2.503-1.778h8.164v3.555h-2.83a2.663 2.663 0 0 0-2.504-1.777 2.67 2.67 0 0 0-2.666 2.666 2.67 2.67 0 0 0 2.666 2.667 2.663 2.663 0 0 0 2.503-1.778h8.164v7.111h-8.06a5.302 5.302 0 0 0-5.206 4.176l-.017.075-1.239 5.579-1.045 4.704a2.652 2.652 0 0 0 .523 2.246 2.652 2.652 0 0 0 2.08.998h.577A3.551 3.551 0 0 0 14.153 48a3.552 3.552 0 0 0 3.43-2.667h12.696A3.551 3.551 0 0 0 33.71 48a3.552 3.552 0 0 0 3.429-2.667h1.082a2.666 2.666 0 0 0 2.487-3.633l-1.478-3.8-1.818-4.678a8.837 8.837 0 0 0-8.287-5.666H24.89v-7.111h8.164a2.663 2.663 0 0 0 2.503 1.777 2.67 2.67 0 0 0 2.666-2.666 2.67 2.67 0 0 0-2.666-2.667 2.663 2.663 0 0 0-2.503 1.778h-2.83V15.11h8.163a2.663 2.663 0 0 0 2.503 1.778 2.67 2.67 0 0 0 2.666-2.667 2.67 2.67 0 0 0-2.666-2.666ZM35.555 8a.89.89 0 0 1 0 1.778.89.89 0 0 1 0-1.778Zm-23.11 1.778a.89.89 0 1 1 .001-1.78.89.89 0 0 1-.002 1.78ZM7.11 15.11a.89.89 0 0 1 0-1.778.89.89 0 0 1 0 1.778Zm5.333 5.333a.89.89 0 1 1 .002-1.78.89.89 0 0 1-.002 1.78ZM27.555 1.778a.89.89 0 0 1 0 1.778.89.89 0 0 1 0-1.778Zm-7.11 0a.89.89 0 0 1 0 1.778.89.89 0 0 1 0-1.778ZM24 32.888a.89.89 0 0 1 0 1.779.89.89 0 0 1 0-1.778Zm-12.591 0h3.633v4.445h-4.62l.987-4.444Zm2.744 13.334a1.78 1.78 0 0 1-1.778-1.778 1.779 1.779 0 0 1 3.556 0 1.78 1.78 0 0 1-1.778 1.778ZM18.597 32v11.556h-1.015a3.551 3.551 0 0 0-3.43-2.667c-1.65 0-3.031 1.137-3.428 2.666h-.577a.887.887 0 0 1-.868-1.081l.748-3.363h5.904c.49 0 .889-.397.889-.889V32a.889.889 0 0 0-.89-.889h-3.95a3.524 3.524 0 0 1 3.072-1.778h8.06v1.778h-3.625a.888.888 0 0 0-.889.889Zm8.958 11.556h-7.18V39.11h7.18v4.445Zm0-6.223h-7.18V32.89h1.122c-.1.279-.164.576-.164.889A2.67 2.67 0 0 0 24 36.444a2.67 2.67 0 0 0 2.666-2.666c0-.313-.064-.61-.163-.89h1.052v4.445Zm6.153 8.89a1.78 1.78 0 0 1-1.777-1.779c0-.98.797-1.777 1.777-1.777.98 0 1.778.797 1.778 1.777a1.78 1.78 0 0 1-1.778 1.778Zm1.712-13.051c.117.227.238.453.332.696l1.348 3.465h-4.21V32.89h2.374c.059.097.105.188.157.283Zm-6.296-3.839a7.07 7.07 0 0 1 4.7 1.778H32a.889.889 0 0 0-.889.889v6.222c0 .492.398.889.889.889h5.792l1.258 3.234a.876.876 0 0 1-.095.824.883.883 0 0 1-.735.386h-1.082a3.551 3.551 0 0 0-3.43-2.666 3.552 3.552 0 0 0-3.429 2.666h-.946V32a.889.889 0 0 0-.889-.889H24.89v-1.778h4.235Zm-.68-10.666h-8.889v-8.89h8.89v8.89Zm7.112 0a.89.89 0 1 1-.002 1.78.89.89 0 0 1 .002-1.78Zm5.333-3.556a.89.89 0 0 1 0-1.778.89.89 0 0 1 0 1.778Z"/></symbol><symbol viewBox="0 0 344.96 344.96" id="check" xmlns="http://www.w3.org/2000/svg"><g data-name="Слой 2"><path class="dcls-1" d="m321.85 86.24-40-23.11-23.1-40H212.5L172.48 0l-40 23.11H86.24l-23.11 40-40 23.1v46.21L0 172.48l23.11 40v46.21l40 23.11 23.11 40h46.21l40 23.1 40-23.11h46.21l23.11-40 40-23.11V212.5l23.11-40-23.11-40V86.24ZM156.91 243.07a16.79 16.79 0 0 1-23.34 0l-50.45-50.44a16.19 16.19 0 0 1 0-22.89l13.35-13.35a16.19 16.19 0 0 1 22.89 0l25.87 25.87 80.34-80.35a16.19 16.19 0 0 1 22.89 0l13.35 13.35a16.19 16.19 0 0 1 0 22.89Z" data-name="Capa 1"/></g></symbol><symbol viewBox="0 0 48 48" id="complex" xmlns="http://www.w3.org/2000/svg"><g clip-path="url(#ea)"><path d="M4.817 28.165h22.077m2.93-1.669 9.335-9.925h3.995M4.817 20.855h10.06l5.641 7.31h6.376M37.5 31.351l2.599-3.125M19.518 40.845h10.09l2.603-3.131M8.207 28.165l8.194 11.138"/><mask id="eb" maskUnits="userSpaceOnUse" x="0" y="0" width="48" height="48"><path d="M0 0h48v48H0V0Z"/></mask><g mask="url(#eb)"><path d="m18.947 42.785 1.773 2.324h21.134"/></g><path d="M4.817 40.845H15.64"/><mask id="ec" maskUnits="userSpaceOnUse" x="0" y="0" width="48" height="48"><path d="M0 0h48v48H0V0Z"/></mask><g mask="url(#ec)" stroke-width="1.875" stroke-miterlimit="10" stroke-linecap="round" stroke-linejoin="round"><path d="M4.817 20.855a1.94 1.94 0 1 1-3.88 0 1.94 1.94 0 0 1 3.88 0Zm40.916 24.254a1.94 1.94 0 1 1-3.88 0 1.94 1.94 0 0 1 3.88 0Zm1.33-16.944a1.94 1.94 0 1 1-3.88 0 1.94 1.94 0 0 1 3.88 0ZM4.817 40.844a1.94 1.94 0 1 1-3.88 0 1.94 1.94 0 0 1 3.88 0Zm0-12.714a1.94 1.94 0 1 1-3.88 0 1.94 1.94 0 0 1 3.88 0Zm42.217-11.559a1.94 1.94 0 1 1-3.88 0 1.94 1.94 0 0 1 3.88 0ZM19.518 40.844a1.94 1.94 0 1 1-3.88 0 1.94 1.94 0 0 1 3.88 0Zm11.256-12.679a1.94 1.94 0 1 1-3.88 0 1.94 1.94 0 0 1 3.88 0Zm0 0h12.409M15.02 11.7v4.43a2.481 2.481 0 0 0 2.482 2.48H30.2l3.645 3.5V3.432A2.481 2.481 0 0 0 31.364.95H17.502a2.481 2.481 0 0 0-2.481 2.482v.016"/><path d="M29.7 5.947v6.86c0 .77-.625 1.396-1.396 1.396h-7.679a1.398 1.398 0 0 1-1.396-1.396v-6.86c0-.831.625-1.321 1.396-1.321h7.68c.77 0 1.395.594 1.395 1.32Z"/><path d="M29.7 8.872v3.934c0 .771-.625 1.396-1.395 1.396h-7.68c-.77 0-1.396-.627-1.396-1.396V8.872H29.7Zm-5.235-4.246v4.246m-2.905 5.331v1.179m5.596-1.179v1.179"/></g></g><defs><clipPath id="ea"><path d="M0 0h48v48H0z"/></clipPath></defs></symbol><symbol viewBox="0 0 48 48" id="energy" xmlns="http://www.w3.org/2000/svg"><path fill-rule="evenodd" clip-rule="evenodd" d="M28.256 12.342H40.62c.416 0 .753.337.753.753v2.249c0 .311-.192.59-.483.702l-2.389.92a15.014 15.014 0 0 1-1.51 3.64l1.039 2.344a.753.753 0 0 1-.157.837l-3.178 3.18a.753.753 0 0 1-.838.155l-2.342-1.037a14.841 14.841 0 0 1-3.642 1.51l-.92 2.388a.753.753 0 0 1-.702.483h-4.497a.753.753 0 0 1-.703-.483l-.92-2.389a14.988 14.988 0 0 1-3.645-1.51l-2.343 1.038a.753.753 0 0 1-.838-.156l-3.178-3.179a.753.753 0 0 1-.156-.838l1.041-2.341A14.976 14.976 0 0 1 9.5 16.966l-2.39-.92a.753.753 0 0 1-.483-.702v-2.249c0-.416.337-.753.753-.753h12.364v-1.365l-2.356-2.888a.753.753 0 0 1-.17-.476V5.347a2.405 2.405 0 1 1 3.157-2.284 2.406 2.406 0 0 1-1.65 2.284v1.998l2.355 2.888a.75.75 0 0 1 .17.476v1.633h1.997V5.347a2.405 2.405 0 1 1 3.157-2.284 2.407 2.407 0 0 1-1.651 2.284v6.995h1.997V10.71a.75.75 0 0 1 .17-.476l2.356-2.888V5.347a2.405 2.405 0 1 1 3.157-2.284 2.407 2.407 0 0 1-1.651 2.284v2.266a.75.75 0 0 1-.17.476l-2.356 2.888v1.365Zm-8.512 1.506h-2.795a7.092 7.092 0 0 0 14.106 0h-2.799v3.17a.753.753 0 0 1-1.506 0v-3.17h-1.997v3.17a.753.753 0 0 1-1.506 0v-3.17H21.25v3.17a.753.753 0 0 1-1.506 0v-3.17Zm-4.308 0H8.133v.979l2.271.874a.753.753 0 0 1 .462.526 13.47 13.47 0 0 0 1.633 3.933.75.75 0 0 1 .048.702l-.99 2.226 2.448 2.448 2.227-.986a.753.753 0 0 1 .698.046c1.218.747 2.544 1.3 3.938 1.63.242.058.44.231.529.463l.874 2.27h3.463l.874-2.27a.753.753 0 0 1 .528-.462 13.333 13.333 0 0 0 3.931-1.629.753.753 0 0 1 .701-.048l2.227.986 2.449-2.448-.987-2.227a.752.752 0 0 1 .047-.698 13.516 13.516 0 0 0 1.63-3.934.753.753 0 0 1 .462-.528l2.27-.874v-.979h-7.298A8.603 8.603 0 0 1 24 21.694c-4.495 0-8.182-3.45-8.564-7.846ZM30.03 2.165a.899.899 0 1 0 0 1.797.899.899 0 0 0 0-1.797Zm-12.058 0a.899.899 0 1 0 .001 1.797.899.899 0 0 0 0-1.797Zm6.029 0a.899.899 0 1 0 0 1.797.899.899 0 0 0 0-1.797Zm-.753 38.338H7.804a.753.753 0 0 1-.753-.753V29.5a.753.753 0 0 1 1.506 0v9.497h3.893v-6.122a.753.753 0 0 1 1.506 0v6.122h3.893V29.5a.753.753 0 0 1 1.505 0v9.497h3.893v-6.122a.753.753 0 0 1 1.506 0v6.122h3.893V29.5a.753.753 0 0 1 1.506 0v9.497h3.892v-6.122a.753.753 0 0 1 1.506 0v6.122h3.893V29.5a.753.753 0 0 1 1.506 0v10.25a.753.753 0 0 1-.753.753H24.753v1.601A2.674 2.674 0 0 1 24 47.341a2.674 2.674 0 0 1-.753-5.237v-1.6Zm.753 3a1.167 1.167 0 1 0 .001 2.334A1.167 1.167 0 0 0 24 43.502Z"/></symbol><symbol viewBox="0 0 24 24" id="fb" xmlns="http://www.w3.org/2000/svg"><path d="M13.397 20.997v-8.196h2.765l.411-3.209h-3.176V7.548c0-.926.258-1.56 1.587-1.56h1.684v-2.86A22.108 22.108 0 0 0 14.201 3c-2.444 0-4.122 1.492-4.122 4.231v2.355H7.332v3.21h2.753v8.201h3.312Z"/></symbol><symbol viewBox="0 0 48 48" id="folder" xmlns="http://www.w3.org/2000/svg"><g clip-path="url(#ha)"><path d="M36.4 0h-32a4.005 4.005 0 0 0-4 4v25.6a4 4 0 0 0 3 3.874l.4-1.55A2.4 2.4 0 0 1 2 29.6V4a2.4 2.4 0 0 1 2.4-2.4h32A2.4 2.4 0 0 1 38.8 4v.8h1.6V4a4.005 4.005 0 0 0-4-4Z"/><path d="M5.2 3.2H3.6v1.6h1.6V3.2Zm3.2 0H6.8v1.6h1.6V3.2Zm3.2 0H10v1.6h1.6V3.2Zm35.766 41.035-7.588-7.588c.398-.712.717-1.465.95-2.247H42v-1.6h-.928a10.78 10.78 0 0 0-.672-5.733V19.2h-1.6v5.095a11.26 11.26 0 0 0-1.6-1.661V16h-1.6v5.515a11.126 11.126 0 0 0-1.6-.764V12.8h-1.6v7.466a11.077 11.077 0 0 0-1.6-.225V14.4h-1.6v5.64c-.538.036-1.073.11-1.6.225V17.6H26v3.151c-.553.212-1.088.467-1.6.764V16.8h-1.6v5.834a11.26 11.26 0 0 0-1.6 1.66V18.4h-1.6v8.667a10.78 10.78 0 0 0-.672 5.733H8.4v1.6h10.872c1.755 5.918 7.975 9.294 13.893 7.539a11.18 11.18 0 0 0 3.263-1.58l7.407 7.407a.8.8 0 0 0 1.13 0l2.4-2.4a.8.8 0 0 0 0-1.131ZM30 40.8a9.61 9.61 0 0 1-9.6-9.6 9.6 9.6 0 1 1 9.6 9.6Zm14.4 5.269-6.73-6.73c.437-.412.84-.858 1.205-1.333l6.794 6.794-1.269 1.27Z"/><path d="M30 23.2a8 8 0 1 0 8 8 8.009 8.009 0 0 0-8-8Zm0 14.4a6.4 6.4 0 0 1-5.534-3.2h11.069A6.4 6.4 0 0 1 30 37.6Zm-6.19-4.8A6.342 6.342 0 0 1 26 26.212V31.2h1.6v-5.929a6.37 6.37 0 0 1 1.6-.416V31.2h1.6v-6.345a6.37 6.37 0 0 1 1.6.416v5.93H34v-4.989a6.342 6.342 0 0 1 2.19 6.588H23.81Z"/><path d="M41.2 6.4h-32a4.005 4.005 0 0 0-4 4V36a4.005 4.005 0 0 0 4 4h10.4v-1.6H9.2A2.4 2.4 0 0 1 6.8 36V10.4A2.4 2.4 0 0 1 9.2 8h32a2.4 2.4 0 0 1 2.4 2.4V36a2.4 2.4 0 0 1-.6 1.587l1.2 1.059c.645-.73 1-1.671 1-2.646V10.4a4.005 4.005 0 0 0-4-4Z"/><path d="M10 9.6H8.4v1.6H10V9.6Zm3.2 0h-1.6v1.6h1.6V9.6Zm3.2 0h-1.6v1.6h1.6V9.6Zm-4.8 16.8H10v4.8h1.6v-4.8Zm3.2-4.8h-1.6v9.6h1.6v-9.6ZM18 24h-1.6v7.2H18V24Z"/></g><defs><clipPath id="ha"><path d="M0 0h48v48H0z"/></clipPath></defs></symbol><symbol viewBox="0 0 16 16" id="instagram" xmlns="http://www.w3.org/2000/svg"><path fill-rule="evenodd" clip-rule="evenodd" d="M4.5 1A3.5 3.5 0 0 0 1 4.5v7A3.5 3.5 0 0 0 4.5 15h7a3.5 3.5 0 0 0 3.5-3.5v-7A3.5 3.5 0 0 0 11.5 1h-7ZM8 5.455a2.545 2.545 0 1 0 0 5.09 2.545 2.545 0 0 0 0-5.09ZM4.182 8a3.818 3.818 0 1 1 7.636 0 3.818 3.818 0 0 1-7.636 0Zm7.636-5.09a1.273 1.273 0 1 0 0 2.545 1.273 1.273 0 0 0 0-2.546Z"/></symbol><symbol viewBox="0 0 48 48" id="people" xmlns="http://www.w3.org/2000/svg"><path d="M15.441 30.102v-3.79c0-4.093 3.31-7.41 7.393-7.41h2.332c4.083 0 7.393 3.317 7.393 7.41v3.742M24 18.901a6.468 6.468 0 0 1-6.469-6.468V9.966A6.468 6.468 0 0 1 24 3.498h.002a6.468 6.468 0 0 1 6.468 6.468v2.467A6.468 6.468 0 0 1 24 18.901Zm8.559 11.44v-5.268c0-3.446 2.786-6.239 6.223-6.239h1.964c3.437 0 6.223 2.793 6.223 6.239v6.015H33.605m6.159-12.254a5.445 5.445 0 0 1-5.445-5.444v-2.078a5.445 5.445 0 0 1 5.444-5.444h.002a5.445 5.445 0 0 1 5.444 5.444v2.078a5.445 5.445 0 0 1-5.445 5.444ZM14.18 31.088H1.031v-6.015c0-3.445 2.787-6.239 6.224-6.239h1.963c3.437 0 6.223 2.794 6.223 6.239v5.113"/><path d="M8.237 18.834h-.001A5.445 5.445 0 0 1 2.79 13.39v-2.078a5.445 5.445 0 0 1 5.445-5.444 5.445 5.445 0 0 1 5.446 5.444v2.078a5.445 5.445 0 0 1-5.445 5.444Zm18.278 7.759 1.543 3.288 3.596.454c2.333.296 3.27 3.182 1.554 4.796l-2.643 2.487.68 3.569c.441 2.316-2.008 4.1-4.069 2.963L24 42.4l-3.176 1.75c-2.061 1.137-4.51-.647-4.07-2.963l.68-3.57-2.642-2.486c-1.715-1.614-.78-4.5 1.554-4.796l3.596-.454 1.543-3.288c1.001-2.134 4.029-2.134 5.03 0Z"/></symbol><symbol viewBox="0 0 16 16" id="telegram" xmlns="http://www.w3.org/2000/svg"><g clip-path="url(#ka)"><path fill-rule="evenodd" clip-rule="evenodd" d="M.874 7.596c4.123-1.834 6.872-3.044 8.248-3.628C13.049 2.3 13.865 2.01 14.397 2c.117-.002.379.028.548.168.251.208.253.66.225.96-.213 2.284-1.134 7.826-1.602 10.385-.199 1.082-.589 1.445-.967 1.48-.821.078-1.445-.554-2.24-1.086-1.245-.834-1.948-1.352-3.156-2.166-1.397-.94-.491-1.456.304-2.3.209-.221 3.827-3.583 3.897-3.888.009-.038.017-.18-.066-.255-.082-.075-.204-.05-.293-.029-.124.029-2.113 1.371-5.965 4.027-.564.396-1.075.589-1.533.579-.505-.011-1.477-.292-2.199-.532-.885-.294-1.59-.45-1.528-.949.032-.26.383-.526 1.052-.798Z"/></g><defs><clipPath id="ka"><path d="M0 0h16v16H0z"/></clipPath></defs></symbol><symbol viewBox="0 0 16 16" id="viber" xmlns="http://www.w3.org/2000/svg"><path d="M8 1.335c-1.071.013-3.374.19-4.662 1.37-.958.948-1.292 2.35-1.331 4.084-.033 1.728-.072 4.973 3.058 5.856v1.346s-.02.538.337.648c.438.14.688-.275 1.105-.72l.778-.879c2.142.178 3.782-.232 3.97-.293.435-.139 2.883-.451 3.283-3.696.41-3.351-.2-5.463-1.301-6.418h-.007c-.332-.306-1.668-1.279-4.652-1.29 0 0-.222-.014-.578-.008Zm.037.942a7.02 7.02 0 0 1 .488.011c2.527.007 3.732.767 4.017 1.023.927.794 1.405 2.697 1.055 5.495-.332 2.713-2.317 2.885-2.685 3.002-.156.05-1.6.406-3.42.289 0 0-1.356 1.634-1.78 2.055-.067.074-.146.095-.196.085-.071-.018-.093-.107-.089-.229l.013-2.233c-2.655-.733-2.498-3.5-2.47-4.946.033-1.446.304-2.628 1.113-3.43 1.088-.982 3.043-1.115 3.953-1.122Zm.2 1.446a.166.166 0 1 0 0 .332 3.136 3.136 0 0 1 2.242.883c.606.588.9 1.378.912 2.411 0 .092.074.167.167.167V7.51a.167.167 0 0 0 .168-.165 3.588 3.588 0 0 0-1.009-2.646c-.66-.645-1.496-.977-2.48-.977Zm-2.198.382a.523.523 0 0 0-.342.067H5.69a2.61 2.61 0 0 0-.637.523 1.003 1.003 0 0 0-.256.525.71.71 0 0 0 .026.302l.01.006c.172.504.396.988.67 1.444a8.48 8.48 0 0 0 1.29 1.762l.015.022.024.017.015.018.017.015c.532.505 1.127.94 1.769 1.295.734.4 1.18.588 1.447.667v.004c.078.024.15.034.221.034.228-.016.444-.109.613-.262a2.53 2.53 0 0 0 .517-.638v-.004c.128-.241.085-.469-.1-.623-.37-.323-.77-.61-1.195-.857-.285-.155-.574-.061-.69.095l-.25.315c-.129.156-.361.134-.361.134l-.007.004C7.093 8.527 6.63 6.772 6.63 6.772s-.022-.239.139-.36l.312-.252c.15-.122.254-.41.094-.695a7.498 7.498 0 0 0-.856-1.194.475.475 0 0 0-.28-.167Zm2.486.495c-.221 0-.221.334.003.334A2.098 2.098 0 0 1 10 5.572 1.94 1.94 0 0 1 10.5 7a.168.168 0 0 0 .167.165l.007.009a.169.169 0 0 0 .167-.167c.015-.662-.191-1.218-.595-1.663C9.84 4.9 9.273 4.65 8.549 4.6h-.024Zm.274.898c-.228-.006-.236.335-.01.341.55.029.816.306.851.877a.166.166 0 0 0 .165.163h.007a.168.168 0 0 0 .16-.178c-.039-.744-.445-1.164-1.166-1.202H8.8Z"/></symbol><symbol viewBox="0 0 16 16" id="vk" xmlns="http://www.w3.org/2000/svg"><path d="M9.17 13C4.045 13 1.122 9.246 1 3h2.567c.084 4.585 1.977 6.527 3.476 6.927V3H9.46v3.954c1.48-.17 3.036-1.972 3.56-3.954h2.418c-.403 2.442-2.09 4.244-3.289 4.985 1.2.6 3.12 2.172 3.851 5.015h-2.66c-.572-1.902-1.996-3.373-3.88-3.574V13h-.29Z"/></symbol><symbol viewBox="0 0 16 16" id="whatsapp" xmlns="http://www.w3.org/2000/svg"><path fill-rule="evenodd" clip-rule="evenodd" d="M12.269 3.755A5.947 5.947 0 0 0 8.035 2 5.994 5.994 0 0 0 2.05 7.985a5.98 5.98 0 0 0 .799 2.992L2 14.077l3.173-.832c.877.477 1.86.728 2.86.728h.002a5.993 5.993 0 0 0 5.533-8.276 5.953 5.953 0 0 0-1.3-1.942Zm-4.234 9.208h-.002c-.89 0-1.765-.24-2.532-.694l-.181-.108-1.883.494.502-1.835-.118-.188a4.965 4.965 0 0 1-.76-2.647 4.982 4.982 0 0 1 6.88-4.597c.604.25 1.152.618 1.613 1.081a4.946 4.946 0 0 1 1.455 3.52 4.982 4.982 0 0 1-4.974 4.974Zm2.729-3.726c-.15-.075-.885-.436-1.022-.486-.137-.05-.236-.075-.336.074-.1.15-.387.486-.474.586-.087.1-.175.112-.324.038-.15-.075-.631-.233-1.203-.742a4.505 4.505 0 0 1-.832-1.036c-.087-.15-.009-.231.066-.306.068-.066.15-.174.224-.262.075-.087.1-.149.15-.249.05-.1.025-.187-.013-.262-.037-.075-.337-.811-.461-1.11-.121-.29-.244-.252-.336-.256a6.418 6.418 0 0 0-.286-.005.55.55 0 0 0-.4.186c-.137.15-.523.512-.523 1.248s.536 1.447.61 1.547c.075.1 1.055 1.61 2.555 2.258.358.154.636.246.853.315.358.114.684.098.942.06.287-.043.885-.362 1.01-.711.124-.35.124-.649.087-.711-.038-.063-.138-.101-.287-.176Z"/></symbol></svg>