<svg width="48" height="48" viewBox="0 0 48 48" fill="none" xmlns="http://www.w3.org/2000/svg">
<path d="M41.6641 9.40808H43.3921C44.9281 9.40808 46.2721 10.6561 46.2721 12.2881V41.9521C46.2721 43.4881 45.0241 44.8321 43.3921 44.8321H4.51208C2.97608 44.8321 1.63208 43.5841 1.63208 41.9521V12.2881C1.63208 10.7521 2.88008 9.40808 4.51208 9.40808H6.24008" stroke="#4750FE" stroke-width="1.44" stroke-miterlimit="10" stroke-linecap="round" stroke-linejoin="round"/>
<path d="M31.6802 9.40808H36.4802" stroke="#4750FE" stroke-width="1.44" stroke-miterlimit="10" stroke-linecap="round" stroke-linejoin="round"/>
<path d="M21.6001 9.40808H26.4001" stroke="#4750FE" stroke-width="1.44" stroke-miterlimit="10" stroke-linecap="round" stroke-linejoin="round"/>
<path d="M11.52 9.40808H16.32" stroke="#4750FE" stroke-width="1.44" stroke-miterlimit="10" stroke-linecap="round" stroke-linejoin="round"/>
<path d="M1.72803 16.8H46.368" stroke="#4750FE" stroke-width="1.44" stroke-miterlimit="10" stroke-linecap="round" stroke-linejoin="round"/>
<path d="M8.92818 13.152C7.48818 13.152 6.33618 12 6.33618 10.56V5.85604C6.33618 4.41604 7.48818 3.26404 8.92818 3.26404C10.3682 3.26404 11.5202 4.41604 11.5202 5.85604V10.56C11.5202 12 10.3682 13.152 8.92818 13.152Z" stroke="#4750FE" stroke-width="1.44" stroke-miterlimit="10" stroke-linecap="round" stroke-linejoin="round"/>
<path d="M19.0083 13.152C17.5683 13.152 16.4163 12 16.4163 10.56V5.85604C16.4163 4.41604 17.5683 3.26404 19.0083 3.26404C20.4483 3.26404 21.6003 4.41604 21.6003 5.85604V10.56C21.6003 12 20.4483 13.152 19.0083 13.152Z" stroke="#4750FE" stroke-width="1.44" stroke-miterlimit="10" stroke-linecap="round" stroke-linejoin="round"/>
<path d="M28.9921 13.152C27.5521 13.152 26.4001 12 26.4001 10.56V5.85604C26.4001 4.41604 27.5521 3.26404 28.9921 3.26404C30.4321 3.26404 31.5841 4.41604 31.5841 5.85604V10.56C31.6801 12 30.4321 13.152 28.9921 13.152Z" stroke="#4750FE" stroke-width="1.44" stroke-miterlimit="10" stroke-linecap="round" stroke-linejoin="round"/>
<path d="M39.0722 13.152C37.6322 13.152 36.4802 12 36.4802 10.56V5.85604C36.4802 4.41604 37.6322 3.26404 39.0722 3.26404C40.5122 3.26404 41.6642 4.41604 41.6642 5.85604V10.56C41.7602 12 40.5122 13.152 39.0722 13.152Z" stroke="#4750FE" stroke-width="1.44" stroke-miterlimit="10" stroke-linecap="round" stroke-linejoin="round"/>
<path d="M4.51196 19.6801H9.98396V25.1521H4.51196V19.6801Z" stroke="#4750FE" stroke-width="1.44" stroke-miterlimit="10" stroke-linecap="round" stroke-linejoin="round"/>
<path d="M12.864 19.6801H18.336V25.1521H12.864V19.6801Z" stroke="#4750FE" stroke-width="1.44" stroke-miterlimit="10" stroke-linecap="round" stroke-linejoin="round"/>
<path d="M29.5681 19.6801H35.0401V25.1521H29.5681V19.6801Z" stroke="#4750FE" stroke-width="1.44" stroke-miterlimit="10" stroke-linecap="round" stroke-linejoin="round"/>
<path d="M12.864 28.032H18.336V33.504H12.864V28.032Z" stroke="#4750FE" stroke-width="1.44" stroke-miterlimit="10" stroke-linecap="round" stroke-linejoin="round"/>
<path d="M21.2161 28.032H26.6881V33.504H21.2161V28.032Z" stroke="#4750FE" stroke-width="1.44" stroke-miterlimit="10" stroke-linecap="round" stroke-linejoin="round"/>
<path d="M37.9202 28.032H43.3922V33.504H37.9202V28.032Z" stroke="#4750FE" stroke-width="1.44" stroke-miterlimit="10" stroke-linecap="round" stroke-linejoin="round"/>
<path d="M4.51196 36.48H9.98396V41.952H4.51196V36.48Z" stroke="#4750FE" stroke-width="1.44" stroke-miterlimit="10" stroke-linecap="round" stroke-linejoin="round"/>
<path d="M12.864 36.48H18.336V41.952H12.864V36.48Z" stroke="#4750FE" stroke-width="1.44" stroke-miterlimit="10" stroke-linecap="round" stroke-linejoin="round"/>
<path d="M29.5681 36.48H35.0401V41.952H29.5681V36.48Z" stroke="#4750FE" stroke-width="1.44" stroke-miterlimit="10" stroke-linecap="round" stroke-linejoin="round"/>
<path d="M37.9202 36.48H43.3922V41.952H37.9202V36.48Z" stroke="#4750FE" stroke-width="1.44" stroke-miterlimit="10" stroke-linecap="round" stroke-linejoin="round"/>
<path d="M21.8882 22.56L23.2322 23.904L26.1122 21.024" stroke="#4750FE" stroke-width="1.44" stroke-miterlimit="10" stroke-linecap="round" stroke-linejoin="round"/>
<path d="M38.688 22.56L39.936 23.904L42.816 21.024" stroke="#4750FE" stroke-width="1.44" stroke-miterlimit="10" stroke-linecap="round" stroke-linejoin="round"/>
<path d="M5.18408 30.912L6.52808 32.256L9.31208 29.376" stroke="#4750FE" stroke-width="1.44" stroke-miterlimit="10" stroke-linecap="round" stroke-linejoin="round"/>
<path d="M21.8882 39.36L23.2322 40.608L26.1122 37.728" stroke="#4750FE" stroke-width="1.44" stroke-miterlimit="10" stroke-linecap="round" stroke-linejoin="round"/>
<path d="M30.24 30.912L31.584 32.256L34.464 29.376" stroke="#4750FE" stroke-width="1.44" stroke-miterlimit="10" stroke-linecap="round" stroke-linejoin="round"/>
</svg>
