<svg width="48" height="48" viewBox="0 0 48 48" fill="none" xmlns="http://www.w3.org/2000/svg">
<path d="M21.3334 11.5555V16.8889H26.6667V11.5555H21.3334ZM24.8889 15.1111H23.1112V13.3333H24.8889V15.1111Z" fill="#4750FE"/>
<path d="M40.8888 11.5555C39.7315 11.5555 38.7538 12.3013 38.3857 13.3333H30.2221V9.77775H33.0524C33.4203 10.8097 34.3981 11.5555 35.5555 11.5555C37.0257 11.5555 38.2221 10.3591 38.2221 8.88891C38.2221 7.41872 37.0258 6.22219 35.5555 6.22219C34.3981 6.22219 33.4203 6.96797 33.0524 7.99997H30.2221H29.3333H28.4444V5.16975C29.4764 4.80178 30.2221 3.82397 30.2221 2.66663C30.2221 1.19644 29.0257 0 27.5555 0C26.0853 0 24.8889 1.19644 24.8889 2.66663C24.8889 3.82397 25.6347 4.80169 26.6667 5.16975V7.99997H21.3333V5.16975C22.3653 4.80178 23.1111 3.82397 23.1111 2.66663C23.111 1.19644 21.9146 0 20.4444 0C18.9742 0 17.7778 1.19644 17.7778 2.66663C17.7778 3.82397 18.5236 4.80169 19.5556 5.16975V7.99997H18.6667H17.7778H14.9475C14.5796 6.96797 13.6018 6.22219 12.4444 6.22219C10.9742 6.22219 9.7778 7.41863 9.7778 8.88881C9.7778 10.359 10.9742 11.5554 12.4444 11.5554C13.6018 11.5554 14.5796 10.8097 14.9475 9.77766H17.7778V13.3332H9.61421C9.24624 12.3012 8.26843 11.5554 7.11108 11.5554C5.6409 11.5554 4.44446 12.7519 4.44446 14.2221C4.44446 15.6922 5.6409 16.8887 7.11108 16.8887C8.26843 16.8887 9.24615 16.1429 9.61421 15.1109H17.7778V18.6665H14.9475C14.5796 17.6345 13.6018 16.8887 12.4444 16.8887C10.9742 16.8887 9.7778 18.0851 9.7778 19.5553C9.7778 21.0255 10.9742 22.2219 12.4444 22.2219C13.6018 22.2219 14.5796 21.4762 14.9475 20.4442H17.7778H18.6667H23.1111V27.5553H15.0515C12.5324 27.5553 10.392 29.2726 9.8453 31.7313L9.82843 31.8059V31.8068L8.58933 37.3849L7.54402 42.0889C7.36711 42.8827 7.55827 43.7004 8.06668 44.3351C8.57508 44.9698 9.33333 45.3334 10.1467 45.3334H10.7236C11.1209 46.8632 12.5013 48 14.1529 48C15.8045 48 17.1849 46.8631 17.5823 45.3334H19.4863H28.4445H30.2791C30.6764 46.8631 32.0568 48 33.7084 48C35.36 48 36.7404 46.8631 37.1378 45.3334H38.2204C39.1013 45.3334 39.9244 44.8996 40.4222 44.1716C40.9191 43.4454 41.0258 42.521 40.7067 41.7005L39.2294 37.9005C39.2294 37.9005 39.2294 37.9005 39.2294 37.8997L37.4107 33.2223C36.0711 29.7805 32.8187 27.5557 29.1245 27.5557H24.889V20.4445H29.3334H30.2222H33.0525C33.4204 21.4765 34.3982 22.2223 35.5556 22.2223C37.0258 22.2223 38.2222 21.0259 38.2222 19.5557C38.2222 18.0855 37.0258 16.8891 35.5556 16.8891C34.3982 16.8891 33.4204 17.6348 33.0525 18.6668H30.2221V15.1113H38.3857C38.7537 16.1433 39.7315 16.8891 40.8888 16.8891C42.359 16.8891 43.5555 15.6926 43.5555 14.2224C43.5555 12.752 42.3591 11.5555 40.8888 11.5555ZM35.5555 7.99997C36.0452 7.99997 36.4443 8.39822 36.4443 8.88891C36.4443 9.37959 36.0452 9.77784 35.5555 9.77784C35.0657 9.77784 34.6666 9.37959 34.6666 8.88891C34.6666 8.39822 35.0657 7.99997 35.5555 7.99997ZM12.4444 9.77775C11.9547 9.77775 11.5556 9.3795 11.5556 8.88881C11.5556 8.39813 11.9547 7.99988 12.4444 7.99988C12.9342 7.99988 13.3334 8.39813 13.3334 8.88881C13.3334 9.3795 12.9342 9.77775 12.4444 9.77775ZM7.11108 15.1111C6.62133 15.1111 6.22215 14.7128 6.22215 14.2222C6.22215 13.7315 6.62124 13.3333 7.11108 13.3333C7.60093 13.3333 7.99993 13.7316 7.99993 14.2222C7.99993 14.7129 7.60083 15.1111 7.11108 15.1111ZM12.4444 20.4444C11.9547 20.4444 11.5556 20.0462 11.5556 19.5555C11.5556 19.0648 11.9547 18.6666 12.4444 18.6666C12.9342 18.6666 13.3334 19.0648 13.3334 19.5555C13.3334 20.0462 12.9342 20.4444 12.4444 20.4444ZM27.5555 1.77778C28.0453 1.77778 28.4445 2.17603 28.4445 2.66672C28.4445 3.15741 28.0454 3.55556 27.5555 3.55556C27.0657 3.55556 26.6667 3.15731 26.6667 2.66672C26.6667 2.17613 27.0658 1.77778 27.5555 1.77778ZM20.4444 1.77778C20.9341 1.77778 21.3332 2.17603 21.3332 2.66672C21.3332 3.15741 20.9341 3.55556 20.4444 3.55556C19.9546 3.55556 19.5555 3.15731 19.5555 2.66672C19.5555 2.17613 19.9546 1.77778 20.4444 1.77778ZM24 32.8889C24.4897 32.8889 24.8889 33.2872 24.8889 33.7778C24.8889 34.2685 24.4898 34.6667 24 34.6667C23.5101 34.6667 23.111 34.2684 23.111 33.7778C23.111 33.2872 23.5102 32.8889 24 32.8889ZM11.4089 32.8889H15.0418V37.3333H10.4213L11.4089 32.8889ZM14.1528 46.2222C13.1724 46.2222 12.3751 45.4249 12.3751 44.4444C12.3751 43.464 13.1724 42.6667 14.1528 42.6667C15.1333 42.6667 15.9306 43.464 15.9306 44.4444C15.9306 45.4249 15.1333 46.2222 14.1528 46.2222ZM18.5973 32V38.2222V43.5555H17.5822C17.1849 42.0257 15.8044 40.8889 14.1528 40.8889C12.5012 40.8889 11.1209 42.0258 10.7235 43.5555H10.1466C9.87549 43.5555 9.62302 43.4337 9.45324 43.2231C9.2843 43.0115 9.22036 42.7387 9.27905 42.4737L10.0266 39.1111H15.9306C16.4213 39.1111 16.8195 38.7138 16.8195 38.2223V32.0001C16.8195 31.5085 16.4213 31.1112 15.9306 31.1112H11.9786C12.5982 30.0312 13.7448 29.3334 15.0514 29.3334H23.111V31.1112H19.4862C18.9955 31.1111 18.5973 31.5084 18.5973 32ZM27.5555 43.5556H20.3751V39.1112H27.5555V43.5556ZM27.5555 37.3333H20.3751V32.8889H21.4968C21.3973 33.168 21.3332 33.4649 21.3332 33.7778C21.3332 35.248 22.5297 36.4445 23.9999 36.4445C25.47 36.4445 26.6665 35.248 26.6665 33.7778C26.6665 33.4649 26.6025 33.1681 26.5029 32.8889H27.5553V37.3333H27.5555ZM33.7084 46.2222C32.728 46.2222 31.9306 45.4249 31.9306 44.4444C31.9306 43.464 32.728 42.6667 33.7084 42.6667C34.6889 42.6667 35.4862 43.464 35.4862 44.4444C35.4862 45.4249 34.6889 46.2222 33.7084 46.2222ZM35.4195 33.1716C35.5369 33.3991 35.6578 33.6249 35.752 33.8676L37.1004 37.3333H32.8889V32.8889H35.2631C35.3218 32.9858 35.368 33.0773 35.4195 33.1716ZM29.1244 29.3333C30.9084 29.3333 32.5573 29.9911 33.8249 31.1111H31.9999C31.5092 31.1111 31.1111 31.5084 31.1111 32V38.2222C31.1111 38.7137 31.5093 39.111 31.9999 39.111H37.7919L39.0496 42.3448C39.1581 42.6221 39.1234 42.9226 38.9554 43.1688C38.7856 43.4141 38.5181 43.5554 38.2203 43.5554H37.1377C36.7404 42.0256 35.3599 40.8888 33.7083 40.8888C32.0567 40.8888 30.6764 42.0257 30.279 43.5554H29.3332V38.2221V31.9999C29.3332 31.5083 28.935 31.111 28.4443 31.111H24.8887V29.3333H29.1244V29.3333ZM28.4444 18.6667H19.5555V9.77775H28.4444V18.6667ZM35.5555 18.6667C36.0452 18.6667 36.4443 19.0649 36.4443 19.5556C36.4443 20.0463 36.0452 20.4445 35.5555 20.4445C35.0657 20.4445 34.6666 20.0463 34.6666 19.5556C34.6666 19.0649 35.0657 18.6667 35.5555 18.6667ZM40.8888 15.1111C40.3991 15.1111 40 14.7128 40 14.2222C40 13.7315 40.3991 13.3333 40.8888 13.3333C41.3786 13.3333 41.7778 13.7316 41.7778 14.2222C41.7778 14.7129 41.3786 15.1111 40.8888 15.1111Z" fill="#4750FE"/>
</svg>
