<svg width="48" height="48" viewBox="0 0 48 48" fill="none" xmlns="http://www.w3.org/2000/svg">
<g clip-path="url(#clip0_1_1814)">
<path d="M36.4001 0H4.39992C2.19191 0.00260001 0.402502 1.79201 0.399902 4.00002V29.6001C0.399702 31.4246 1.63411 33.0179 3.40071 33.4737L3.80072 31.9249C2.74041 31.6515 1.99951 30.6951 1.99991 29.6001V4.00002C1.99991 2.67451 3.07441 1.60001 4.39992 1.60001H36.4001C37.7256 1.60001 38.8001 2.67451 38.8001 4.00002V4.80002H40.4001V4.00002C40.3975 1.79201 38.6081 0.00260001 36.4001 0Z" fill="#4750FE"/>
<path d="M5.2001 3.19995H3.6001V4.79996H5.2001V3.19995Z" fill="#4750FE"/>
<path d="M8.40006 3.19995H6.80005V4.79996H8.40006V3.19995Z" fill="#4750FE"/>
<path d="M11.6 3.19995H10V4.79996H11.6V3.19995Z" fill="#4750FE"/>
<path d="M47.3659 44.2346L39.7779 36.6465C40.1765 35.935 40.4953 35.1816 40.7283 34.4001H42.0003V32.8001H41.0723C41.3736 30.8636 41.1413 28.8816 40.4003 27.0673V19.2001H38.8003V24.2945C38.3252 23.6876 37.7891 23.1311 37.2003 22.6337V16.0001H35.6003V21.5153C35.0882 21.2185 34.5531 20.963 34.0003 20.7513V12.8H32.4002V20.2657C31.873 20.1519 31.3383 20.0768 30.8002 20.0409V14.4001H29.2002V20.0409C28.6621 20.0768 28.1274 20.1519 27.6002 20.2657V17.6001H26.0002V20.7513C25.4474 20.963 24.9124 21.2185 24.4002 21.5153V16.8001H22.8002V22.6337C22.2114 23.1311 21.6753 23.6876 21.2002 24.2945V18.4001H19.6002V27.0673C18.8592 28.8816 18.6269 30.8636 18.9282 32.8001H8.40015V34.4001H19.2722C21.0268 40.3184 27.2468 43.6936 33.165 41.939C34.3312 41.5932 35.4332 41.0594 36.4275 40.3586L43.8347 47.7658C44.1471 48.0781 44.6535 48.0781 44.9659 47.7658L47.3659 45.3658C47.6782 45.0534 47.6782 44.547 47.3659 44.2346ZM30.0002 40.8002C24.7006 40.7945 20.4059 36.4997 20.4002 31.2001C20.4002 25.8982 24.6983 21.6001 30.0002 21.6001C35.3022 21.6001 39.6003 25.8982 39.6003 31.2001C39.6003 36.502 35.3022 40.8002 30.0002 40.8002ZM44.4003 46.069L37.6707 39.3394C38.1067 38.9274 38.5093 38.4815 38.8747 38.0058L45.6691 44.8002L44.4003 46.069Z" fill="#4750FE"/>
<path d="M30 23.2002C25.5817 23.2002 22 26.7819 22 31.2002C22 35.6185 25.5817 39.2003 30 39.2003C34.4184 39.2003 38.0001 35.6185 38.0001 31.2002C37.9953 26.7839 34.4164 23.205 30 23.2002ZM30 37.6003C27.7164 37.5974 25.6074 36.3779 24.4656 34.4002H35.5345C34.3927 36.3779 32.2836 37.5974 30 37.6003ZM23.8104 32.8002C23.1667 30.3642 24.0262 27.7782 26 26.2122V31.2002H27.6V25.2714C28.113 25.0638 28.6509 24.924 29.2 24.8554V31.2002H30.8V24.8554C31.3491 24.924 31.887 25.0638 32.4 25.2714V31.2002H34.0001V26.2122C35.9739 27.7782 36.8334 30.3642 36.1897 32.8002H23.8104Z" fill="#4750FE"/>
<path d="M41.2001 6.40015H9.19997C6.99196 6.40275 5.20255 8.19215 5.19995 10.4002V36.0003C5.20255 38.2083 6.99196 39.9977 9.19997 40.0003H19.6V38.4003H9.19997C7.87446 38.4003 6.79996 37.3258 6.79996 36.0003V10.4002C6.79996 9.07466 7.87446 8.00015 9.19997 8.00015H41.2001C42.5256 8.00015 43.6001 9.07466 43.6001 10.4002V36.0003C43.6 36.5848 43.3867 37.1491 43.0001 37.5875L44.2001 38.6459C44.8449 37.9155 45.2005 36.9746 45.2001 36.0003V10.4002C45.1975 8.19215 43.4081 6.40275 41.2001 6.40015Z" fill="#4750FE"/>
<path d="M10.0002 9.6001H8.40015V11.2001H10.0002V9.6001Z" fill="#4750FE"/>
<path d="M13.2001 9.6001H11.6001V11.2001H13.2001V9.6001Z" fill="#4750FE"/>
<path d="M16.4001 9.6001H14.8V11.2001H16.4001V9.6001Z" fill="#4750FE"/>
<path d="M11.6 26.4001H10V31.2002H11.6V26.4001Z" fill="#4750FE"/>
<path d="M14.8 21.6001H13.2V31.2001H14.8V21.6001Z" fill="#4750FE"/>
<path d="M18.0002 24H16.4001V31.2H18.0002V24Z" fill="#4750FE"/>
</g>
<defs>
<clipPath id="clip0_1_1814">
<rect width="48" height="48" fill="white"/>
</clipPath>
</defs>
</svg>
