<svg width="16" height="16" viewBox="0 0 16 16" fill="none" xmlns="http://www.w3.org/2000/svg">
<path fill-rule="evenodd" clip-rule="evenodd" d="M4.5 1C2.567 1 1 2.567 1 4.5V11.5C1 13.433 2.567 15 4.5 15H11.5C13.433 15 15 13.433 15 11.5V4.5C15 2.567 13.433 1 11.5 1H4.5ZM8 5.45455C6.59418 5.45455 5.45455 6.59418 5.45455 8C5.45455 9.40579 6.59418 10.5455 8 10.5455C9.40579 10.5455 10.5455 9.40579 10.5455 8C10.5455 6.59418 9.40579 5.45455 8 5.45455ZM4.18182 8C4.18182 5.89128 5.89128 4.18182 8 4.18182C10.1087 4.18182 11.8182 5.89128 11.8182 8C11.8182 10.1087 10.1087 11.8182 8 11.8182C5.89128 11.8182 4.18182 10.1087 4.18182 8ZM11.8182 2.90909C11.1153 2.90909 10.5455 3.47891 10.5455 4.18182C10.5455 4.88473 11.1153 5.45455 11.8182 5.45455C12.5211 5.45455 13.0909 4.88473 13.0909 4.18182C13.0909 3.47891 12.5211 2.90909 11.8182 2.90909Z" fill="#292B33"/>
</svg>
