<svg width="48" height="48" viewBox="0 0 48 48" fill="none" xmlns="http://www.w3.org/2000/svg">
<path d="M15.441 30.1017V26.3123C15.441 22.2194 18.751 18.9014 22.8339 18.9014H25.166C29.249 18.9014 32.5589 22.2194 32.5589 26.3123V30.0539" stroke="#4750FE" stroke-width="2.0625" stroke-miterlimit="10" stroke-linecap="round" stroke-linejoin="round"/>
<path d="M24.0007 18.9014H23.9992C20.4271 18.9014 17.5312 16.0056 17.5312 12.4334V9.96593C17.5312 6.39377 20.4271 3.49792 23.9992 3.49792H24.0007C27.5728 3.49792 30.4687 6.39377 30.4687 9.96593V12.4334C30.4687 16.0056 27.5728 18.9014 24.0007 18.9014Z" stroke="#4750FE" stroke-width="2.0625" stroke-miterlimit="10" stroke-linecap="round" stroke-linejoin="round"/>
<path d="M32.559 30.341V25.0729C32.559 21.6274 35.3452 18.8344 38.7823 18.8344H40.7455C44.1826 18.8344 46.9688 21.6274 46.9688 25.0729V31.088H33.6045" stroke="#4750FE" stroke-width="2.0625" stroke-miterlimit="10" stroke-linecap="round" stroke-linejoin="round"/>
<path d="M39.7645 18.8344H39.7633C36.7563 18.8344 34.3186 16.3967 34.3186 13.3896V11.3125C34.3186 8.30549 36.7563 5.8678 39.7633 5.8678H39.7645C42.7716 5.8678 45.2093 8.30549 45.2093 11.3125V13.3896C45.2094 16.3967 42.7716 18.8344 39.7645 18.8344Z" stroke="#4750FE" stroke-width="2.0625" stroke-miterlimit="10" stroke-linecap="round" stroke-linejoin="round"/>
<path d="M14.1802 31.0882H1.03125V25.073C1.03125 21.6276 3.8175 18.8345 7.25456 18.8345H9.21778C12.6548 18.8345 15.4411 21.6276 15.4411 25.073V30.1855" stroke="#4750FE" stroke-width="2.0625" stroke-miterlimit="10" stroke-linecap="round" stroke-linejoin="round"/>
<path d="M8.23683 18.8344H8.23561C5.22858 18.8344 2.79089 16.3967 2.79089 13.3896V11.3125C2.79089 8.30549 5.22858 5.8678 8.23561 5.8678H8.23683C11.2439 5.8678 13.6816 8.30549 13.6816 11.3125V13.3896C13.6816 16.3967 11.2439 18.8344 8.23683 18.8344Z" stroke="#4750FE" stroke-width="2.0625" stroke-miterlimit="10" stroke-linecap="round" stroke-linejoin="round"/>
<path d="M26.5149 26.5926L28.0576 29.8807L31.6539 30.3354C33.9875 30.6306 34.9231 33.517 33.2082 35.1308L30.5653 37.6177L31.2452 41.1868C31.6864 43.5028 29.237 45.2868 27.176 44.1504L23.9999 42.3993L20.8239 44.1503C18.7629 45.2866 16.3135 43.5027 16.7547 41.1867L17.4345 37.6176L14.7917 35.1307C13.0768 33.5169 14.0124 30.6305 16.346 30.3353L19.9423 29.8806L21.485 26.5925C22.4862 24.4589 25.5137 24.4589 26.5149 26.5926Z" stroke="#4750FE" stroke-width="2.0625" stroke-miterlimit="10" stroke-linecap="round" stroke-linejoin="round"/>
</svg>
