<svg width="16" height="16" viewBox="0 0 16 16" fill="none" xmlns="http://www.w3.org/2000/svg">
<g clip-path="url(#clip0_1_160)">
<path fill-rule="evenodd" clip-rule="evenodd" d="M0.874071 7.59642C4.99683 5.76181 7.74602 4.55231 9.12152 3.96799C13.049 2.29954 13.8651 2.00969 14.397 2.0001C14.514 1.99801 14.7756 2.02764 14.945 2.16807C15.1964 2.37639 15.1978 2.82857 15.1699 3.12784C14.957 5.41187 14.0361 10.9545 13.5676 13.5127C13.3693 14.5951 12.979 14.9581 12.6011 14.9936C11.7799 15.0707 11.1562 14.4392 10.3608 13.9067C9.11611 13.0733 8.41291 12.5545 7.20469 11.7414C5.80841 10.8016 6.71357 10.2851 7.5093 9.44091C7.71756 9.22001 11.3361 5.85835 11.4061 5.55338C11.4149 5.51524 11.423 5.37305 11.3403 5.298C11.2576 5.22296 11.1356 5.24858 11.0475 5.269C10.9227 5.29795 8.93424 6.64032 5.08223 9.29607C4.51781 9.69194 4.00659 9.88479 3.54857 9.87469C3.04359 9.86358 2.0723 9.5831 1.35021 9.34335C0.464552 9.04933 -0.239359 8.89382 -0.178039 8.39448C-0.146108 8.13431 0.204576 7.86833 0.874071 7.59642Z" fill="#292B33"/>
</g>
<defs>
<clipPath id="clip0_1_160">
<rect width="16" height="16" fill="white"/>
</clipPath>
</defs>
</svg>
